<?xml version="1.0" encoding="utf-8"?>
<!-- Generator: Adobe Illustrator 21.0.0, SVG Export Plug-In . SVG Version: 6.00 Build 0)  -->
<svg version="1.1" id="Layer_1" xmlns="http://www.w3.org/2000/svg" xmlns:xlink="http://www.w3.org/1999/xlink" x="0px" y="0px"
	 viewBox="0 0 600 400" style="enable-background:new 0 0 600 400;" xml:space="preserve">
<style type="text/css">
	.st0{fill:#FFFFFF;}
	.st1{enable-background:new    ;}
	.st2{fill:#006664;}
	.st3{fill:#AAAD00;}
	.st4{fill:#00665E;}
	.st5{fill:none;stroke:#006664;stroke-linecap:round;stroke-linejoin:round;stroke-dasharray:0,1.62;}
</style>
<title>Artboard 1 copy 18</title>
<rect x="-771.3" y="-1934.3" class="st0" width="3389.3" height="2407.5"/>
<g class="st1">
	<path class="st2" d="M216.3,147.4v12.3h13.8v2.3h-13.8v13.6h-2.6v-30.3h18.8v2.1H216.3z"/>
	<path class="st2" d="M253,175.6l-2.8-7.3h-14.8l-2.8,7.3H230l11.7-30.3h2.2l11.7,30.3H253z M242.9,148.7l-6.6,17.4h13.2
		L242.9,148.7z"/>
	<path class="st2" d="M279.5,166.9c-0.2,1.4-0.7,2.6-1.3,3.7s-1.4,2-2.2,2.8s-1.9,1.4-3.1,1.8c-1.2,0.4-2.4,0.6-3.7,0.6
		c-1.5,0-2.8-0.3-4.2-0.8s-2.5-1.3-3.5-2.3c-0.5-0.5-0.8-0.9-1.2-1.4s-0.6-1-0.8-1.5c-0.2-0.5-0.4-1.1-0.5-1.7
		c-0.1-0.6-0.2-1.3-0.3-2.1s-0.1-1.6-0.1-2.5s0-2,0-3.1s0-2.2,0-3.1s0-1.8,0.1-2.5s0.1-1.5,0.3-2.1s0.3-1.2,0.5-1.7s0.5-1,0.8-1.5
		c0.3-0.5,0.7-0.9,1.2-1.4c1-1,2.2-1.8,3.5-2.3s2.7-0.8,4.2-0.8c1.3,0,2.6,0.2,3.8,0.6s2.2,1,3.1,1.8s1.6,1.7,2.2,2.8s1,2.4,1.3,3.8
		h-2.5c-0.2-1-0.5-2-1-2.8s-1-1.6-1.7-2.1s-1.5-1-2.3-1.3s-1.8-0.5-2.8-0.5c-1.1,0-2.1,0.2-3.1,0.6c-1,0.4-1.8,1-2.6,1.7
		c-0.4,0.4-0.7,0.8-0.9,1.1s-0.5,0.8-0.7,1.3c-0.2,0.5-0.3,1-0.4,1.5c-0.1,0.6-0.2,1.2-0.2,1.9c-0.1,0.7-0.1,1.5-0.1,2.3
		s0,1.8,0,2.9s0,2,0,2.9c0,0.9,0,1.6,0.1,2.3c0.1,0.7,0.1,1.3,0.2,1.9s0.2,1,0.4,1.5s0.4,0.9,0.7,1.3c0.3,0.4,0.6,0.8,0.9,1.1
		c0.8,0.8,1.6,1.3,2.6,1.7s2,0.6,3.1,0.6c1,0,1.9-0.2,2.8-0.5s1.6-0.8,2.3-1.4s1.3-1.3,1.8-2.2s0.8-1.8,1.1-2.8L279.5,166.9
		L279.5,166.9z"/>
	<path class="st2" d="M306,169.4c-0.5,1.3-1.2,2.5-2.1,3.4c-0.9,1-2,1.7-3.3,2.3s-2.7,0.8-4.4,0.8s-3.1-0.3-4.4-0.8
		s-2.4-1.3-3.3-2.3c-0.9-1-1.6-2.1-2.1-3.4s-0.7-2.7-0.7-4.3v-19.8h2.5v19.4c0,1.3,0.2,2.5,0.5,3.6s0.9,2,1.5,2.8
		c0.7,0.8,1.5,1.4,2.5,1.8s2.1,0.7,3.4,0.7c1.3,0,2.4-0.2,3.4-0.7s1.8-1,2.5-1.8c0.7-0.8,1.2-1.7,1.5-2.8c0.3-1.1,0.5-2.3,0.5-3.6
		v-19.4h2.6v19.8C306.8,166.6,306.5,168.1,306,169.4z"/>
	<path class="st2" d="M314.7,175.6v-30.3h2.6v28h16.3v2.3H314.7z"/>
	<path class="st2" d="M342.2,147.5v28.1h-2.6v-28.1h-9.4v-2.2h21.5v2.2H342.2z"/>
	<path class="st2" d="M365.4,163v12.6h-2.5V163l-9.4-17.7h2.7l8.1,15.2l7.9-15.2h2.6L365.4,163z"/>
	<path class="st2" d="M412.5,160.4c0,1.2,0,2.2,0,3.1s0,1.8-0.1,2.5s-0.1,1.5-0.3,2.1c-0.1,0.6-0.3,1.2-0.5,1.7
		c-0.2,0.5-0.5,1-0.8,1.5c-0.3,0.5-0.7,0.9-1.2,1.4c-1,1-2.2,1.8-3.5,2.3s-2.7,0.8-4.2,0.8c-1.4,0-2.8-0.3-4.1-0.8s-2.5-1.3-3.5-2.3
		c-0.5-0.5-0.8-0.9-1.2-1.4c-0.3-0.5-0.6-1-0.8-1.5c-0.2-0.5-0.4-1.1-0.5-1.7c-0.1-0.6-0.2-1.3-0.3-2.1s-0.1-1.6-0.1-2.5s0-2,0-3.1
		s0-2.2,0-3.1s0-1.8,0.1-2.5s0.1-1.5,0.3-2.1c0.1-0.6,0.3-1.2,0.5-1.7c0.2-0.5,0.5-1,0.8-1.5c0.3-0.5,0.7-0.9,1.2-1.4
		c1-1,2.2-1.8,3.5-2.3s2.7-0.8,4.1-0.8c1.5,0,2.9,0.3,4.2,0.8s2.5,1.3,3.5,2.3c0.5,0.4,0.8,0.9,1.2,1.4c0.3,0.5,0.6,1,0.8,1.5
		c0.2,0.5,0.4,1.1,0.5,1.7c0.1,0.6,0.2,1.3,0.3,2.1s0.1,1.6,0.1,2.5S412.5,159.3,412.5,160.4z M410.1,160.4c0-1.1,0-2,0-2.9
		c0-0.9,0-1.6-0.1-2.3c-0.1-0.7-0.1-1.3-0.2-1.9c-0.1-0.6-0.2-1.1-0.4-1.5c-0.2-0.5-0.4-0.9-0.6-1.3s-0.6-0.8-0.9-1.1
		c-0.8-0.8-1.7-1.3-2.7-1.7c-1-0.4-2-0.6-3.1-0.6c-1.1,0-2.1,0.2-3,0.6c-1,0.4-1.8,1-2.6,1.7c-0.4,0.4-0.7,0.8-0.9,1.1
		c-0.3,0.4-0.5,0.8-0.7,1.3c-0.2,0.5-0.3,1-0.4,1.5c-0.1,0.6-0.2,1.2-0.2,1.9c-0.1,0.7-0.1,1.5-0.1,2.3c0,0.9,0,1.8,0,2.9s0,2,0,2.9
		c0,0.9,0,1.6,0.1,2.3c0.1,0.7,0.1,1.3,0.2,1.9s0.2,1,0.4,1.5s0.4,0.9,0.7,1.3c0.3,0.4,0.6,0.8,0.9,1.1c0.8,0.8,1.6,1.3,2.6,1.7
		c1,0.4,2,0.6,3,0.6c1.1,0,2.1-0.2,3.1-0.6s1.9-1,2.7-1.7c0.4-0.4,0.7-0.7,0.9-1.1c0.3-0.4,0.5-0.8,0.6-1.3c0.2-0.5,0.3-1,0.4-1.5
		c0.1-0.5,0.2-1.2,0.2-1.9c0.1-0.7,0.1-1.5,0.1-2.3C410.1,162.5,410.1,161.5,410.1,160.4z"/>
	<path class="st2" d="M422.2,147.4v12.3H436v2.3h-13.8v13.6h-2.6v-30.3h18.8v2.1H422.2z"/>
</g>
<g class="st1">
	<path class="st2" d="M221.3,256.9c0,0.5,0,1-0.1,1.6s-0.1,1-0.2,1.5s-0.3,0.9-0.5,1.3s-0.5,0.7-0.8,1s-0.7,0.5-1.2,0.7
		s-1,0.2-1.7,0.2h-4.3V251h4.3c0.6,0,1.2,0.1,1.7,0.2s0.9,0.4,1.2,0.6s0.6,0.6,0.8,0.9s0.4,0.8,0.5,1.2s0.2,0.9,0.2,1.4
		S221.3,256.4,221.3,256.9z M220.3,256.9c0-0.4,0-0.9,0-1.3c0-0.4-0.1-0.8-0.2-1.2s-0.2-0.7-0.4-1s-0.4-0.6-0.7-0.8s-0.6-0.4-1-0.5
		s-0.8-0.2-1.4-0.2h-3.1v10.4h3.1c0.6,0,1-0.1,1.4-0.2s0.7-0.3,1-0.6s0.5-0.5,0.6-0.9s0.3-0.7,0.4-1.1s0.1-0.8,0.2-1.3
		S220.3,257.3,220.3,256.9z"/>
	<path class="st2" d="M224.2,263.1V251h7.8v0.8h-6.7v4.7h5.7v0.9h-5.7v4.9h6.7v0.9H224.2z"/>
	<path class="st2" d="M242.6,254.5c0,0.6-0.1,1-0.3,1.5c-0.2,0.4-0.5,0.8-0.8,1.1s-0.7,0.5-1.2,0.7s-1,0.2-1.5,0.2h-3.5v5.1h-1V251
		h4.5c0.6,0,1.1,0.1,1.5,0.2s0.9,0.4,1.2,0.7s0.6,0.7,0.8,1.1S242.6,253.9,242.6,254.5z M241.6,254.5c0-0.4-0.1-0.8-0.2-1.2
		s-0.4-0.6-0.6-0.8s-0.6-0.4-0.9-0.5s-0.8-0.2-1.2-0.2h-3.3v5.3h3.3c0.4,0,0.8-0.1,1.2-0.2s0.7-0.3,0.9-0.5s0.5-0.5,0.6-0.8
		S241.6,254.9,241.6,254.5z"/>
	<path class="st2" d="M251.2,263.1l-1.1-2.9h-5.9l-1.1,2.9H242l4.7-12.1h0.9l4.7,12.1H251.2z M247.2,252.3l-2.6,7h5.3L247.2,252.3z"
		/>
	<path class="st2" d="M261.5,263.1l-3-5.5H255v5.5h-1V251h4.9c0.5,0,1,0.1,1.5,0.2s0.8,0.3,1.2,0.6s0.6,0.6,0.8,1s0.3,0.9,0.3,1.4
		c0,0.4-0.1,0.8-0.2,1.2s-0.3,0.7-0.6,1s-0.6,0.5-0.9,0.7s-0.8,0.3-1.2,0.4c0.5,0.9,1,1.8,1.6,2.8s1,1.9,1.5,2.8H261.5z
		 M261.5,254.2c0-0.4-0.1-0.8-0.2-1.1s-0.3-0.6-0.6-0.8s-0.5-0.4-0.9-0.5s-0.7-0.2-1.1-0.2H255v4.8h3.7c0.4,0,0.8,0,1.1-0.1
		s0.6-0.2,0.9-0.5c0.2-0.2,0.4-0.5,0.6-0.8S261.5,254.7,261.5,254.2z"/>
	<path class="st2" d="M268.5,251.8v11.3h-1v-11.3h-3.8V251h8.6v0.9H268.5z"/>
	<path class="st2" d="M283.4,263.1v-9l0.1-1.3l-0.3,1.1l-3.3,7.5h-1l-3.4-7.6l-0.3-1l0,1.4v9h-1V251h0.9l4.2,9.4l4.1-9.4h0.9v12.1
		H283.4z"/>
	<path class="st2" d="M287.8,263.1V251h7.8v0.8h-6.7v4.7h5.7v0.9h-5.7v4.9h6.7v0.9H287.8z"/>
	<path class="st2" d="M305.8,263.1l-7-10.5v10.5h-1V251h0.9l7,10.5V251h1v12.1H305.8z"/>
	<path class="st2" d="M313.4,251.8v11.3h-1v-11.3h-3.8V251h8.6v0.9H313.4z"/>
	<path class="st2" d="M331.9,257c0,0.5,0,0.9,0,1.2s0,0.7,0,1s-0.1,0.6-0.1,0.8s-0.1,0.5-0.2,0.7s-0.2,0.4-0.3,0.6s-0.3,0.4-0.5,0.6
		c-0.4,0.4-0.9,0.7-1.4,0.9s-1.1,0.3-1.7,0.3c-0.6,0-1.1-0.1-1.7-0.3s-1-0.5-1.4-0.9c-0.2-0.2-0.3-0.4-0.5-0.6s-0.2-0.4-0.3-0.6
		s-0.1-0.4-0.2-0.7s-0.1-0.5-0.1-0.8s0-0.6,0-1s0-0.8,0-1.2s0-0.9,0-1.2c0-0.4,0-0.7,0-1s0.1-0.6,0.1-0.8s0.1-0.5,0.2-0.7
		s0.2-0.4,0.3-0.6s0.3-0.4,0.5-0.5c0.4-0.4,0.9-0.7,1.4-0.9s1.1-0.3,1.7-0.3c0.6,0,1.2,0.1,1.7,0.3s1,0.5,1.4,0.9
		c0.2,0.2,0.3,0.4,0.5,0.5s0.2,0.4,0.3,0.6s0.1,0.4,0.2,0.7s0.1,0.5,0.1,0.8s0,0.6,0,1C331.9,256.2,331.9,256.6,331.9,257z M331,257
		c0-0.4,0-0.8,0-1.2c0-0.3,0-0.7,0-0.9s-0.1-0.5-0.1-0.7s-0.1-0.4-0.2-0.6s-0.2-0.4-0.3-0.5s-0.2-0.3-0.4-0.5
		c-0.3-0.3-0.7-0.5-1.1-0.7s-0.8-0.2-1.2-0.2c-0.4,0-0.8,0.1-1.2,0.2s-0.7,0.4-1,0.7c-0.1,0.1-0.3,0.3-0.4,0.5s-0.2,0.3-0.3,0.5
		s-0.1,0.4-0.2,0.6s-0.1,0.5-0.1,0.7s0,0.6,0,0.9c0,0.3,0,0.7,0,1.2s0,0.8,0,1.2s0,0.7,0,0.9s0.1,0.5,0.1,0.7s0.1,0.4,0.2,0.6
		s0.2,0.4,0.3,0.5s0.2,0.3,0.4,0.5c0.3,0.3,0.7,0.5,1,0.7s0.8,0.2,1.2,0.2c0.4,0,0.8-0.1,1.2-0.2s0.7-0.4,1.1-0.7
		c0.1-0.1,0.3-0.3,0.4-0.5s0.2-0.3,0.3-0.5s0.1-0.4,0.2-0.6s0.1-0.5,0.1-0.7s0-0.6,0-0.9S331,257.5,331,257z"/>
	<path class="st2" d="M335.8,251.8v4.9h5.5v0.9h-5.5v5.4h-1V251h7.5v0.8H335.8z"/>
	<path class="st2" d="M357.1,259.6c-0.1,0.6-0.3,1-0.5,1.5s-0.5,0.8-0.9,1.1s-0.8,0.5-1.2,0.7s-1,0.2-1.5,0.2
		c-0.6,0-1.1-0.1-1.7-0.3s-1-0.5-1.4-0.9c-0.2-0.2-0.3-0.4-0.5-0.6s-0.2-0.4-0.3-0.6s-0.1-0.4-0.2-0.7s-0.1-0.5-0.1-0.8s0-0.6,0-1
		s0-0.8,0-1.2s0-0.9,0-1.2c0-0.4,0-0.7,0-1s0.1-0.6,0.1-0.8s0.1-0.5,0.2-0.7s0.2-0.4,0.3-0.6s0.3-0.4,0.5-0.5
		c0.4-0.4,0.9-0.7,1.4-0.9s1.1-0.3,1.7-0.3c0.5,0,1,0.1,1.5,0.2s0.9,0.4,1.2,0.7s0.7,0.7,0.9,1.1s0.4,0.9,0.5,1.5h-1
		c-0.1-0.4-0.2-0.8-0.4-1.1s-0.4-0.6-0.7-0.9s-0.6-0.4-0.9-0.5s-0.7-0.2-1.1-0.2c-0.4,0-0.8,0.1-1.2,0.2s-0.7,0.4-1,0.7
		c-0.1,0.1-0.3,0.3-0.4,0.5s-0.2,0.3-0.3,0.5s-0.1,0.4-0.2,0.6s-0.1,0.5-0.1,0.7s0,0.6,0,0.9c0,0.3,0,0.7,0,1.2s0,0.8,0,1.2
		s0,0.7,0,0.9s0.1,0.5,0.1,0.7s0.1,0.4,0.2,0.6s0.2,0.4,0.3,0.5s0.2,0.3,0.4,0.5c0.3,0.3,0.7,0.5,1,0.7s0.8,0.2,1.2,0.2
		c0.4,0,0.8-0.1,1.1-0.2s0.7-0.3,0.9-0.6s0.5-0.5,0.7-0.9s0.3-0.7,0.4-1.1L357.1,259.6L357.1,259.6z"/>
	<path class="st2" d="M367.7,257c0,0.5,0,0.9,0,1.2s0,0.7,0,1s-0.1,0.6-0.1,0.8s-0.1,0.5-0.2,0.7s-0.2,0.4-0.3,0.6s-0.3,0.4-0.5,0.6
		c-0.4,0.4-0.9,0.7-1.4,0.9s-1.1,0.3-1.7,0.3c-0.6,0-1.1-0.1-1.7-0.3s-1-0.5-1.4-0.9c-0.2-0.2-0.3-0.4-0.5-0.6s-0.2-0.4-0.3-0.6
		s-0.1-0.4-0.2-0.7s-0.1-0.5-0.1-0.8s0-0.6,0-1s0-0.8,0-1.2s0-0.9,0-1.2c0-0.4,0-0.7,0-1s0.1-0.6,0.1-0.8s0.1-0.5,0.2-0.7
		s0.2-0.4,0.3-0.6s0.3-0.4,0.5-0.5c0.4-0.4,0.9-0.7,1.4-0.9s1.1-0.3,1.7-0.3c0.6,0,1.2,0.1,1.7,0.3s1,0.5,1.4,0.9
		c0.2,0.2,0.3,0.4,0.5,0.5s0.2,0.4,0.3,0.6s0.1,0.4,0.2,0.7s0.1,0.5,0.1,0.8s0,0.6,0,1C367.7,256.2,367.7,256.6,367.7,257z
		 M366.7,257c0-0.4,0-0.8,0-1.2c0-0.3,0-0.7,0-0.9s-0.1-0.5-0.1-0.7s-0.1-0.4-0.2-0.6s-0.2-0.4-0.3-0.5s-0.2-0.3-0.4-0.5
		c-0.3-0.3-0.7-0.5-1.1-0.7s-0.8-0.2-1.2-0.2c-0.4,0-0.8,0.1-1.2,0.2s-0.7,0.4-1,0.7c-0.1,0.1-0.3,0.3-0.4,0.5s-0.2,0.3-0.3,0.5
		s-0.1,0.4-0.2,0.6s-0.1,0.5-0.1,0.7s0,0.6,0,0.9c0,0.3,0,0.7,0,1.2s0,0.8,0,1.2s0,0.7,0,0.9s0.1,0.5,0.1,0.7s0.1,0.4,0.2,0.6
		s0.2,0.4,0.3,0.5s0.2,0.3,0.4,0.5c0.3,0.3,0.7,0.5,1,0.7s0.8,0.2,1.2,0.2c0.4,0,0.8-0.1,1.2-0.2s0.7-0.4,1.1-0.7
		c0.1-0.1,0.3-0.3,0.4-0.5s0.2-0.3,0.3-0.5s0.1-0.4,0.2-0.6s0.1-0.5,0.1-0.7s0-0.6,0-0.9S366.7,257.5,366.7,257z"/>
	<path class="st2" d="M379.8,263.1v-9l0.1-1.3l-0.3,1.1l-3.3,7.5h-1l-3.4-7.6l-0.3-1l0,1.4v9h-1V251h0.9l4.2,9.4l4.1-9.4h0.9v12.1
		H379.8z"/>
	<path class="st2" d="M392.5,254.5c0,0.6-0.1,1-0.3,1.5c-0.2,0.4-0.5,0.8-0.8,1.1s-0.7,0.5-1.2,0.7s-1,0.2-1.5,0.2h-3.5v5.1h-1V251
		h4.5c0.6,0,1.1,0.1,1.5,0.2s0.9,0.4,1.2,0.7s0.6,0.7,0.8,1.1S392.5,253.9,392.5,254.5z M391.5,254.5c0-0.4-0.1-0.8-0.2-1.2
		s-0.4-0.6-0.6-0.8s-0.6-0.4-0.9-0.5s-0.8-0.2-1.2-0.2h-3.3v5.3h3.3c0.4,0,0.8-0.1,1.2-0.2s0.7-0.3,0.9-0.5s0.5-0.5,0.6-0.8
		S391.5,254.9,391.5,254.5z"/>
	<path class="st2" d="M402.5,260.6c-0.2,0.5-0.5,1-0.8,1.4s-0.8,0.7-1.3,0.9s-1.1,0.3-1.7,0.3s-1.2-0.1-1.7-0.3s-1-0.5-1.3-0.9
		s-0.6-0.8-0.8-1.4s-0.3-1.1-0.3-1.7V251h1v7.8c0,0.5,0.1,1,0.2,1.4s0.3,0.8,0.6,1.1s0.6,0.6,1,0.7s0.8,0.3,1.4,0.3
		c0.5,0,1-0.1,1.3-0.3s0.7-0.4,1-0.7s0.5-0.7,0.6-1.1s0.2-0.9,0.2-1.4V251h1v7.9C402.8,259.5,402.7,260.1,402.5,260.6z"/>
	<path class="st2" d="M409.3,251.8v11.3h-1v-11.3h-3.8V251h8.6v0.9H409.3z"/>
	<path class="st2" d="M415,263.1V251h7.8v0.8H416v4.7h5.7v0.9H416v4.9h6.7v0.9H415z"/>
	<path class="st2" d="M432.6,263.1l-3-5.5h-3.5v5.5h-1V251h4.9c0.5,0,1,0.1,1.5,0.2s0.8,0.3,1.2,0.6s0.6,0.6,0.8,1s0.3,0.9,0.3,1.4
		c0,0.4-0.1,0.8-0.2,1.2s-0.3,0.7-0.6,1s-0.6,0.5-0.9,0.7s-0.8,0.3-1.2,0.4c0.5,0.9,1,1.8,1.6,2.8s1,1.9,1.5,2.8H432.6z
		 M432.6,254.2c0-0.4-0.1-0.8-0.2-1.1s-0.3-0.6-0.6-0.8s-0.5-0.4-0.9-0.5s-0.7-0.2-1.1-0.2h-3.7v4.8h3.7c0.4,0,0.8,0,1.1-0.1
		s0.6-0.2,0.9-0.5c0.2-0.2,0.4-0.5,0.6-0.8S432.6,254.7,432.6,254.2z"/>
	<path class="st2" d="M441.3,263.1V251h7.8v0.8h-6.7v4.7h5.7v0.9h-5.7v4.9h6.7v0.9H441.3z"/>
	<path class="st2" d="M459.4,263.1l-7-10.5v10.5h-1V251h0.9l7,10.5V251h1v12.1H459.4z"/>
	<path class="st2" d="M471.3,260.5c-0.2,0.5-0.4,0.9-0.8,1.3c-0.2,0.2-0.4,0.4-0.7,0.6s-0.5,0.3-0.8,0.4s-0.6,0.2-0.9,0.3
		s-0.6,0.1-0.9,0.1c-0.6,0-1.1-0.1-1.7-0.3s-1-0.5-1.4-0.9c-0.2-0.2-0.3-0.4-0.5-0.6s-0.2-0.4-0.3-0.6s-0.1-0.4-0.2-0.7
		s-0.1-0.5-0.1-0.8s0-0.6,0-1s0-0.8,0-1.2s0-0.9,0-1.2c0-0.4,0-0.7,0-1s0.1-0.6,0.1-0.8s0.1-0.5,0.2-0.7s0.2-0.4,0.3-0.6
		s0.3-0.4,0.5-0.5c0.4-0.4,0.9-0.7,1.4-0.9s1.1-0.3,1.7-0.3c0.5,0,1,0.1,1.5,0.3s0.9,0.4,1.2,0.7s0.7,0.7,0.9,1.1s0.4,0.9,0.5,1.5
		h-1c-0.1-0.4-0.2-0.8-0.4-1.1s-0.4-0.6-0.7-0.9s-0.6-0.4-0.9-0.5s-0.7-0.2-1.1-0.2c-0.2,0-0.4,0-0.6,0.1s-0.4,0.1-0.6,0.2
		s-0.4,0.2-0.6,0.3s-0.4,0.3-0.5,0.4c-0.2,0.2-0.3,0.4-0.4,0.7s-0.2,0.5-0.3,0.9s-0.1,0.7-0.1,1.2s0,1,0,1.6c0,0.4,0,0.8,0,1.2
		s0,0.7,0,0.9s0.1,0.5,0.1,0.7s0.1,0.4,0.2,0.6s0.2,0.4,0.3,0.5s0.2,0.3,0.4,0.5c0.3,0.3,0.7,0.5,1,0.7s0.8,0.2,1.2,0.2
		c0.2,0,0.4,0,0.7-0.1s0.5-0.1,0.7-0.2s0.4-0.2,0.6-0.4s0.4-0.3,0.5-0.5c0.1-0.2,0.2-0.3,0.3-0.5s0.2-0.4,0.2-0.6s0.1-0.4,0.1-0.6
		s0-0.5,0-0.7v-1.1h-3.3v-0.8h4.2v2C471.5,259.5,471.4,260.1,471.3,260.5z"/>
	<path class="st2" d="M474.5,263.1V251h1v12.1H474.5z"/>
	<path class="st2" d="M486.9,263.1l-7-10.5v10.5h-1V251h0.9l7,10.5V251h1v12.1H486.9z"/>
	<path class="st2" d="M491.2,263.1V251h7.8v0.8h-6.7v4.7h5.7v0.9h-5.7v4.9h6.7v0.9H491.2z"/>
	<path class="st2" d="M501.3,263.1V251h7.8v0.8h-6.7v4.7h5.7v0.9h-5.7v4.9h6.7v0.9H501.3z"/>
	<path class="st2" d="M518.9,263.1l-3-5.5h-3.5v5.5h-1V251h4.9c0.5,0,1,0.1,1.5,0.2s0.8,0.3,1.2,0.6s0.6,0.6,0.8,1s0.3,0.9,0.3,1.4
		c0,0.4-0.1,0.8-0.2,1.2s-0.3,0.7-0.6,1s-0.6,0.5-0.9,0.7s-0.8,0.3-1.2,0.4c0.5,0.9,1,1.8,1.6,2.8s1,1.9,1.5,2.8H518.9z
		 M518.9,254.2c0-0.4-0.1-0.8-0.2-1.1s-0.3-0.6-0.6-0.8s-0.5-0.4-0.9-0.5s-0.7-0.2-1.1-0.2h-3.7v4.8h3.7c0.4,0,0.8,0,1.1-0.1
		s0.6-0.2,0.9-0.5c0.2-0.2,0.4-0.5,0.6-0.8S518.9,254.7,518.9,254.2z"/>
	<path class="st2" d="M522.8,263.1V251h1v12.1H522.8z"/>
	<path class="st2" d="M535.2,263.1l-7-10.5v10.5h-1V251h0.9l7,10.5V251h1v12.1H535.2z"/>
	<path class="st2" d="M547.1,260.5c-0.2,0.5-0.4,0.9-0.8,1.3c-0.2,0.2-0.4,0.4-0.7,0.6s-0.5,0.3-0.8,0.4s-0.6,0.2-0.9,0.3
		s-0.6,0.1-0.9,0.1c-0.6,0-1.1-0.1-1.7-0.3s-1-0.5-1.4-0.9c-0.2-0.2-0.3-0.4-0.5-0.6s-0.2-0.4-0.3-0.6s-0.1-0.4-0.2-0.7
		s-0.1-0.5-0.1-0.8s0-0.6,0-1s0-0.8,0-1.2s0-0.9,0-1.2c0-0.4,0-0.7,0-1s0.1-0.6,0.1-0.8s0.1-0.5,0.2-0.7s0.2-0.4,0.3-0.6
		s0.3-0.4,0.5-0.5c0.4-0.4,0.9-0.7,1.4-0.9s1.1-0.3,1.7-0.3c0.5,0,1,0.1,1.5,0.3s0.9,0.4,1.2,0.7s0.7,0.7,0.9,1.1s0.4,0.9,0.5,1.5
		h-1c-0.1-0.4-0.2-0.8-0.4-1.1s-0.4-0.6-0.7-0.9s-0.6-0.4-0.9-0.5s-0.7-0.2-1.1-0.2c-0.2,0-0.4,0-0.6,0.1s-0.4,0.1-0.6,0.2
		s-0.4,0.2-0.6,0.3s-0.4,0.3-0.5,0.4c-0.2,0.2-0.3,0.4-0.4,0.7s-0.2,0.5-0.3,0.9s-0.1,0.7-0.1,1.2s0,1,0,1.6c0,0.4,0,0.8,0,1.2
		s0,0.7,0,0.9s0.1,0.5,0.1,0.7s0.1,0.4,0.2,0.6s0.2,0.4,0.3,0.5s0.2,0.3,0.4,0.5c0.3,0.3,0.7,0.5,1,0.7s0.8,0.2,1.2,0.2
		c0.2,0,0.4,0,0.7-0.1s0.5-0.1,0.7-0.2s0.4-0.2,0.6-0.4s0.4-0.3,0.5-0.5c0.1-0.2,0.2-0.3,0.3-0.5s0.2-0.4,0.2-0.6s0.1-0.4,0.1-0.6
		s0-0.5,0-0.7v-1.1h-3.3v-0.8h4.2v2C547.4,259.5,547.3,260.1,547.1,260.5z"/>
</g>
<g class="st1">
	<path class="st2" d="M213.2,223.8v-30.1h20.2v5.6h-14v6.5h11.9v5.6h-11.9v6.8h14v5.6H213.2z"/>
	<path class="st2" d="M257.4,223.8l-12.8-18.7v18.7h-6.2v-30.1h5l12.8,18.5v-18.5h6.4v30.1H257.4z"/>
	<path class="st2" d="M290.7,216.8c-0.4,1.4-1.2,2.6-2.2,3.7c-1.2,1.3-2.6,2.2-4,2.7c-1.4,0.5-3,0.8-4.6,0.8c-1.7,0-3.2-0.3-4.6-0.9
		c-1.4-0.6-2.6-1.4-3.6-2.5c-0.8-0.8-1.4-1.6-1.8-2.4c-0.4-0.9-0.7-1.8-0.9-2.8c-0.2-1-0.3-2-0.3-3.2c0-1.1,0-2.3,0-3.7
		c0-1.3,0-2.5,0-3.6c0-1.1,0.1-2.2,0.3-3.2c0.2-1,0.5-1.9,0.9-2.8c0.4-0.9,1-1.7,1.8-2.4c1-1.1,2.2-2,3.6-2.6
		c1.3-0.6,2.9-0.9,4.6-0.9c1.8,0,3.3,0.3,4.6,0.8c1.3,0.5,2.5,1.3,3.4,2.2c0.9,0.9,1.7,2,2.2,3.2c0.6,1.2,0.9,2.5,1.1,3.8H285
		c-0.3-1.4-0.9-2.5-1.8-3.2c-0.9-0.8-2-1.1-3.4-1.1c-0.8,0-1.5,0.1-2.1,0.5c-0.6,0.3-1.1,0.7-1.5,1.1c-0.3,0.3-0.5,0.7-0.7,1
		c-0.2,0.4-0.3,0.8-0.4,1.4c-0.1,0.6-0.2,1.4-0.2,2.3c0,0.9-0.1,2.1-0.1,3.5s0,2.6,0.1,3.5c0,0.9,0.1,1.7,0.2,2.3
		c0.1,0.6,0.2,1.1,0.4,1.5c0.2,0.4,0.4,0.7,0.7,1c0.4,0.4,0.9,0.8,1.5,1.1c0.6,0.3,1.3,0.4,2.1,0.4c0.8,0,1.6-0.2,2.2-0.5
		c0.7-0.3,1.2-0.7,1.6-1.2c0.9-0.9,1.4-2.2,1.4-3.8v-0.9h-5.5v-5.3h11.6v4.6C291.3,213.6,291.1,215.4,290.7,216.8z"/>
	<path class="st2" d="M297.6,223.8v-30.1h6.2v30.1H297.6z"/>
	<path class="st2" d="M330.5,223.8l-12.8-18.7v18.7h-6.2v-30.1h5l12.8,18.5v-18.5h6.4v30.1H330.5z"/>
	<path class="st2" d="M342.9,223.8v-30.1h20.2v5.6h-14v6.5h11.9v5.6h-11.9v6.8h14v5.6H342.9z"/>
	<path class="st2" d="M368.1,223.8v-30.1h20.2v5.6h-14v6.5h11.9v5.6h-11.9v6.8h14v5.6H368.1z"/>
	<path class="st2" d="M409.2,223.8l-5.9-11.8h-3.9v11.8h-6.2v-30.1h12c1.6,0,3,0.2,4.2,0.8c1.2,0.5,2.3,1.2,3.2,2
		c0.9,0.8,1.5,1.8,2,2.9c0.4,1.1,0.7,2.3,0.7,3.6c0,1-0.1,1.9-0.5,2.7c-0.3,0.8-0.7,1.6-1.2,2.2c-0.5,0.7-1.1,1.2-1.7,1.7
		c-0.7,0.5-1.3,0.9-2,1.2l6.8,13H409.2z M408.8,202.9c0-1.1-0.4-2-1-2.7c-0.7-0.7-1.7-1-2.9-1h-5.4v7.3h5.4c1.2,0,2.2-0.3,2.9-1
		C408.5,204.9,408.8,204,408.8,202.9z"/>
	<path class="st2" d="M421.4,223.8v-30.1h6.2v30.1H421.4z"/>
	<path class="st2" d="M454.4,223.8l-12.8-18.7v18.7h-6.2v-30.1h5l12.8,18.5v-18.5h6.4v30.1H454.4z"/>
	<path class="st2" d="M487.7,216.8c-0.4,1.4-1.2,2.6-2.2,3.7c-1.2,1.3-2.6,2.2-4,2.7s-2.9,0.8-4.6,0.8c-1.7,0-3.2-0.3-4.6-0.9
		c-1.4-0.6-2.6-1.4-3.6-2.5c-0.8-0.8-1.4-1.6-1.8-2.4c-0.4-0.9-0.7-1.8-0.9-2.8c-0.2-1-0.3-2-0.3-3.2c0-1.1,0-2.3,0-3.7
		c0-1.3,0-2.5,0-3.6c0-1.1,0.1-2.2,0.3-3.2s0.5-1.9,0.9-2.8c0.4-0.9,1-1.7,1.8-2.4c1-1.1,2.2-2,3.6-2.6c1.3-0.6,2.9-0.9,4.6-0.9
		c1.8,0,3.3,0.3,4.7,0.8c1.3,0.5,2.5,1.3,3.4,2.2c0.9,0.9,1.7,2,2.2,3.2c0.6,1.2,0.9,2.5,1.1,3.8H482c-0.3-1.4-0.9-2.5-1.8-3.2
		c-0.9-0.8-2-1.1-3.4-1.1c-0.8,0-1.5,0.1-2.1,0.5c-0.6,0.3-1.1,0.7-1.5,1.1c-0.3,0.3-0.5,0.7-0.7,1c-0.2,0.4-0.3,0.8-0.4,1.4
		c-0.1,0.6-0.2,1.4-0.2,2.3c0,0.9-0.1,2.1-0.1,3.5s0,2.6,0.1,3.5c0,0.9,0.1,1.7,0.2,2.3c0.1,0.6,0.2,1.1,0.4,1.5
		c0.2,0.4,0.4,0.7,0.7,1c0.4,0.4,0.9,0.8,1.5,1.1c0.6,0.3,1.3,0.4,2.1,0.4c0.8,0,1.6-0.2,2.2-0.5c0.7-0.3,1.2-0.7,1.7-1.2
		c0.9-0.9,1.4-2.2,1.4-3.8v-0.9h-5.5v-5.3h11.6v4.6C488.3,213.6,488.1,215.4,487.7,216.8z"/>
</g>
<rect x="51.5" y="247.9" class="st3" width="131.6" height="17.4"/>
<path class="st4" d="M166,143.8v56.7c0,10.2-6.1,16.2-15.4,16.2s-15.3-6.1-15.3-16.2v-51.2c0-3-2.4-5.5-5.5-5.5c0,0,0,0,0,0h-28
	c-1.8,0-3.5,0.8-4.7,2.2l-28.3,34.9v-37.1H51.5v86.8h17.3v-26.5l11.4-13.6l22.8,40.1h20.1l-31.5-53.1l25.2-30.1
	c0.2-0.2,0.4-0.3,0.7-0.2c0.2,0.1,0.4,0.3,0.4,0.6v53.3c0,18.7,14.4,30.9,32.6,30.9s32.6-12.2,32.6-30.9v-57.4H166z"/>
<line class="st5" x1="213.6" y1="235.6" x2="488.4" y2="235.6"/>
</svg>
