<svg id="Layer_1" data-name="Layer 1" xmlns="http://www.w3.org/2000/svg" viewBox="0 0 814.05 203.73"><defs><style>.cls-1{fill:#fe000c;}.cls-2{fill:#5a5a5a;}</style></defs><title>exmo_tag_tm_rgb</title><path class="cls-1" d="M545.47,357.14h18.15v6.2a28.26,28.26,0,0,1,19.86-7.73c13.67,0,24.53,10.1,24.53,26v41.13H588.83v-36c0-8.83-4.3-14.07-12.1-14.07-7.56,0-12.11,4.94-12.11,14.07v36H545.47Zm201.47,32.77c0-9.06,6.77-16.51,16.18-16.51s16.19,7.44,16.19,16.51-6.77,16.51-16.19,16.51S746.94,399,746.94,389.91Zm-18.92,0c0,18.91,15.15,34.27,35,34.27s35-15.36,35-34.27-15.15-34.3-35-34.3S728,371,728,389.91Zm-244.29,0c0-9.06,6.77-16.51,16.18-16.51s16.19,7.44,16.19,16.51-6.77,16.51-16.19,16.51S483.73,399,483.73,389.92Zm-18.92,0c0,18.91,15.15,34.27,35,34.27s35-15.36,35-34.27-15.15-34.3-35-34.3S464.81,371,464.81,389.92Zm426.12-32.78h19.43v65.55H890.93Zm0-23.95h19.43v16.68H890.93Zm34.41,0h19.43v89.5H925.34Zm-65.4,56.68a16.4,16.4,0,1,1-16.35-16.37A16.14,16.14,0,0,1,859.94,389.87Zm-32.31,32.82.2-5c1.35,1,7.36,6.54,19.93,6.54,16.53,0,31.86-14.81,31.86-34.27S865.23,355.62,848,355.62c-13.19,0-19.22,6-20.15,6.72V333.19H809.2v89.5Zm-453.33,0,20.19-26,12.6,12.75-28.83,36.09h22.55l18.46-23.91L454,457h27.22l-49.92-50.19,39.31-49.67H448.06L419,394.44,406.43,381.8l32.32-40.71h-22.5l-22.07,28.4-12-12.36H355.34l27,27.3-30.56,38.25Zm-85.88-89.5h58.94v16.68H308.47v18.55h37.14v16.19H308.47V406h38.89v16.7H288.42Zm334.93,0H655l15,65.33h.67L686,333.19H716.8v89.5H697.94V355.11h-.86l-16.61,67.58H659.29l-16.23-67.58h-.86v67.58H623.35Z" transform="translate(-288.42 -333.19)"/><path class="cls-2" d="M651.52,482.25H629.66v13.23h19.89v5.89H629.66v13.91h22.86v5.85H623.35V476.39h28.17Zm33.81,18.39a15.05,15.05,0,0,0-.7-4.81,8.5,8.5,0,0,0-2.23-3.54,9.48,9.48,0,0,0-4-2.12,23.49,23.49,0,0,0-6.29-.73,42,42,0,0,0-7.68.67q-3.66.67-6.13,1.32v29.71h6V496c.26-.07.61-.19,1-.28l1.55-.3,1.17-.19a26.15,26.15,0,0,1,3.91-.28,9.7,9.7,0,0,1,5.08,1,4,4,0,0,1,1.25,1.25,6.64,6.64,0,0,1,.91,2.67,24.23,24.23,0,0,1,.2,3.24v17.94h6ZM710.61,495a6.58,6.58,0,0,1,2.42,1.87,7.81,7.81,0,0,1,1.38,2.75,12,12,0,0,1,.45,3.35H698.34a10.2,10.2,0,0,1,2.67-6.28,8.05,8.05,0,0,1,6.09-2.38A8.27,8.27,0,0,1,710.61,495Zm8.31,19a30,30,0,0,1-4.17,1.8,17.64,17.64,0,0,1-6,.93,13,13,0,0,1-4.75-.77,8.78,8.78,0,0,1-3.23-2.08,8.13,8.13,0,0,1-1.85-3,11.42,11.42,0,0,1-.63-3.61h22.54c0-.37.08-.81.11-1.33s0-1.08,0-1.66a20.63,20.63,0,0,0-.76-5.62,13.4,13.4,0,0,0-2.39-4.75,11.52,11.52,0,0,0-4.2-3.29,14.42,14.42,0,0,0-6.21-1.22,16.45,16.45,0,0,0-6.33,1.17,13.75,13.75,0,0,0-4.9,3.37,15.31,15.31,0,0,0-3.17,5.28,20.32,20.32,0,0,0-1.12,7c0,7.37,4.87,15.32,15.38,15.38a24.67,24.67,0,0,0,11.6-2.31Zm189.18-19a6.59,6.59,0,0,1,2.42,1.87,7.91,7.91,0,0,1,1.38,2.75,12.09,12.09,0,0,1,.45,3.35H895.82a10.19,10.19,0,0,1,2.67-6.28,8,8,0,0,1,6.09-2.38A8.27,8.27,0,0,1,908.09,495Zm8.3,19a29.92,29.92,0,0,1-4.17,1.8,17.65,17.65,0,0,1-6,.93,13,13,0,0,1-4.75-.77,8.79,8.79,0,0,1-3.23-2.08,8.12,8.12,0,0,1-1.85-3,11.37,11.37,0,0,1-.63-3.61h22.54c0-.37.08-.81.11-1.33s0-1.08,0-1.66a20.67,20.67,0,0,0-.76-5.62,13.49,13.49,0,0,0-2.38-4.75,11.58,11.58,0,0,0-4.2-3.29,14.42,14.42,0,0,0-6.21-1.22,16.46,16.46,0,0,0-6.33,1.17,13.74,13.74,0,0,0-4.89,3.37,15.3,15.3,0,0,0-3.17,5.28,20.33,20.33,0,0,0-1.12,7c0,7.37,4.88,15.32,15.37,15.38a24.67,24.67,0,0,0,11.6-2.31Zm103.47-19a6.58,6.58,0,0,1,2.41,1.87,7.85,7.85,0,0,1,1.38,2.75,12.17,12.17,0,0,1,.45,3.35H1007.6a10.22,10.22,0,0,1,2.67-6.28,8.06,8.06,0,0,1,6.09-2.38A8.29,8.29,0,0,1,1019.87,495Zm8.3,19a29.91,29.91,0,0,1-4.17,1.8,17.65,17.65,0,0,1-6,.93,13,13,0,0,1-4.75-.77A8.78,8.78,0,0,1,1010,514a8.1,8.1,0,0,1-1.85-3,11.48,11.48,0,0,1-.63-3.61h22.54c0-.37.08-.81.11-1.33s0-1.08,0-1.66a20.63,20.63,0,0,0-.75-5.62,13.42,13.42,0,0,0-2.39-4.75,11.53,11.53,0,0,0-4.2-3.29,14.42,14.42,0,0,0-6.21-1.22,16.44,16.44,0,0,0-6.33,1.17,13.68,13.68,0,0,0-4.89,3.37,15.15,15.15,0,0,0-3.17,5.28,20.25,20.25,0,0,0-1.13,7c0,7.37,4.88,15.32,15.38,15.38a24.68,24.68,0,0,0,11.61-2.31Zm47.31-19a6.57,6.57,0,0,1,2.42,1.87,7.81,7.81,0,0,1,1.38,2.75,12.05,12.05,0,0,1,.45,3.35h-16.52a10.2,10.2,0,0,1,2.67-6.28,8,8,0,0,1,6.09-2.38A8.26,8.26,0,0,1,1075.48,495Zm8.31,19a29.9,29.9,0,0,1-4.17,1.8,17.64,17.64,0,0,1-6,.93,13,13,0,0,1-4.75-.77,8.82,8.82,0,0,1-3.24-2.08,8.15,8.15,0,0,1-1.85-3,11.43,11.43,0,0,1-.63-3.61h22.54c0-.37.08-.81.11-1.33s0-1.08,0-1.66a20.67,20.67,0,0,0-.76-5.62,13.44,13.44,0,0,0-2.39-4.75,11.56,11.56,0,0,0-4.2-3.29,14.44,14.44,0,0,0-6.21-1.22,16.45,16.45,0,0,0-6.33,1.17,13.73,13.73,0,0,0-4.89,3.37,15.32,15.32,0,0,0-3.17,5.28,20.32,20.32,0,0,0-1.12,7c0,7.37,4.88,15.32,15.38,15.38a24.66,24.66,0,0,0,11.6-2.31ZM745.61,489.94c-.56-.11-1.35-.22-2.38-.34a31.07,31.07,0,0,0-3.45-.17,32.79,32.79,0,0,0-6.71.64,38,38,0,0,0-5.49,1.55v29.52h6V495.87a19,19,0,0,1,3-.68,26,26,0,0,1,6.92-.11l2.14.3Zm25,24.63a15.81,15.81,0,0,1-3.2,1.3,14.5,14.5,0,0,1-4.17.57,9.64,9.64,0,0,1-7.11-2.72q-2.74-2.72-2.74-7.77a13.7,13.7,0,0,1,.63-4.17A9.62,9.62,0,0,1,756,498.3a9.38,9.38,0,0,1,3.35-2.4,12.06,12.06,0,0,1,4.87-.9,17.8,17.8,0,0,1,3.74.34c1,.22,1.95.45,2.7.69ZM748.3,499.81a19.28,19.28,0,0,0-1.09,6.52,18,18,0,0,0,1.07,6.36,14.87,14.87,0,0,0,2.89,4.83l.25.26a13.55,13.55,0,0,0,4.18,2.95l.67.29a15.07,15.07,0,0,0,5.1,1c.37,0,.73,0,1.09,0a18.36,18.36,0,0,0,4.2-.54l.63-.18a20.06,20.06,0,0,0,3.32-1.26v1.81a12.71,12.71,0,0,1-.54,3.7,7.7,7.7,0,0,1-1.58,2.79,7,7,0,0,1-1.73,1.38,9.5,9.5,0,0,1-1,.47,13.3,13.3,0,0,1-3.87,1,22.71,22.71,0,0,1-3.59.09,22,22,0,0,1-2.92-.34,27.12,27.12,0,0,1-3.21-.78l-1.27-.42c-.59-.19-1.1-.38-1.51-.56v5.93c1.14.34,2.59.73,4.36,1.18a29.24,29.24,0,0,0,6.84.66,19.54,19.54,0,0,0,7.43-1.26,13,13,0,0,0,5-3.43,13.23,13.23,0,0,0,2.75-5.12,22.35,22.35,0,0,0,.86-6.26V491.75c-1.24-.44-2.85-.94-4.84-1.46l-.23-.06a28.07,28.07,0,0,0-7.13-.79,19.41,19.41,0,0,0-7.5,1.33,15.16,15.16,0,0,0-5.38,3.66A15.38,15.38,0,0,0,748.3,499.81Zm57.84-9.54-6.33,15.51c-.2.46-.88,2.15-1,2.55-.27.64-.52,1.27-.75,1.89l-.4,1.07c-.36,1-.7,1.91-1,2.81h-.13q-.64-2-1.43-4.17-.31-.86-.66-1.78c-.16-.42-.79-2.09-1-2.53l-5.83-15.34H781l12.46,30.84-6.7,15.17h6.5l19.54-46Zm24.76,6.67v24.2h6V473.62h-6Zm14.68,1.89v22.32h6V490.27h-6Zm-.29-19.53v3.86h6.6v-6.63h-6.6Zm42.24,11H881l-6.61,16.13q-.77,1.87-1.54,3.86t-1.42,4h-.13c-.23-.74-.45-1.42-.64-2.06s-.38-1.19-.58-1.76l-.65-1.83q-.36-1-.8-2.18l-6-16.13H856l12.09,30.87h6.56Zm36.85,4.8a9.07,9.07,0,0,0-.77,3.73,8.3,8.3,0,0,0,.69,3.51,7,7,0,0,0,2,2.53,13.17,13.17,0,0,0,2.95,1.74l.41.18c1.05.44,2.22.87,3.51,1.28l1,.3c.91.28,1.73.53,2.45.76a14.78,14.78,0,0,1,2.23.91l.16.09a3,3,0,0,1,1.31,1.42,3.2,3.2,0,0,1,.22.81,3.56,3.56,0,0,1,0,1.18,3.23,3.23,0,0,1-.76,1.5,4.63,4.63,0,0,1-1.78,1.23,8.67,8.67,0,0,1-2.41.59,18.94,18.94,0,0,1-3.12.08,24.5,24.5,0,0,1-2.69-.29c-.88-.15-1.71-.33-2.51-.54s-1.42-.42-2-.64a7.48,7.48,0,0,1-1.18-.49v5.36a24.09,24.09,0,0,0,4.29,1.14l.17,0a31.22,31.22,0,0,0,5.91.47,17.73,17.73,0,0,0,5.62-.77,10.54,10.54,0,0,0,3.76-2.09,7.79,7.79,0,0,0,1.95-2.62,8.64,8.64,0,0,0,.35-.9,9.21,9.21,0,0,0,.41-2.09,9.87,9.87,0,0,0,0-2,7.57,7.57,0,0,0-.3-1.41,7,7,0,0,0-1.43-2.49,9.77,9.77,0,0,0-2.59-2.09l-.31-.16a21.84,21.84,0,0,0-3.23-1.34l-.82-.26c-1.24-.39-2.42-.79-3.56-1.18a20.65,20.65,0,0,1-2.1-.82,5.8,5.8,0,0,1-1.62-1.08,2.78,2.78,0,0,1-.83-1.59,4,4,0,0,1,0-.92,3.39,3.39,0,0,1,1.25-2.43,4.5,4.5,0,0,1,.47-.34,7.07,7.07,0,0,1,3.26-.91,20.76,20.76,0,0,1,2.37,0,23.17,23.17,0,0,1,2.7.26c.86.14,1.67.3,2.42.5.58.15,1.14.31,1.67.47.37.12.69.23,1,.35v-5.43a27.26,27.26,0,0,0-3.65-.84,31,31,0,0,0-5.17-.38,18,18,0,0,0-5.36.72,11.36,11.36,0,0,0-3.85,2A8.15,8.15,0,0,0,924.38,495.06Zm49.12-21.44h-6v47.52h6V497.22a25.55,25.55,0,0,1,3.75-1.5,14.75,14.75,0,0,1,4.59-.72q3.57,0,5.17,1.72t1.6,5.52v18.9h6v-20q0-5.92-2.66-8.82t-8.48-2.9a20.63,20.63,0,0,0-5.6.77,21,21,0,0,0-4.35,1.64Zm81.5,16.32c-.56-.11-1.35-.22-2.38-.34a31,31,0,0,0-3.44-.17,32.83,32.83,0,0,0-6.71.64,38,38,0,0,0-5.49,1.55v29.52h6V495.87a19,19,0,0,1,3-.68,26.06,26.06,0,0,1,6.92-.11l2.14.3Z" transform="translate(-288.42 -333.19)"/><path class="cls-2" d="M1091.8,489.48h-1.59v-6.3h-2.34v-1.37h6.26v1.37h-2.32Zm10.66,0H1101v-6.4h0l-1.41,6.4h-1.58l-1.4-6.4h0v6.4H1095v-7.66h2.35l1.38,6h0l1.36-6h2.32Z" transform="translate(-288.42 -333.19)"/></svg>