<svg id="Layer_1" data-name="Layer 1" xmlns="http://www.w3.org/2000/svg" viewBox="0 0 600 400"><defs><style>.cls-1{fill:#fff;}.cls-2{fill:#ff672b;}.cls-3{fill:#0070a8;}</style></defs><title>Artboard 1 copy 11</title><rect class="cls-1" x="-128.7" y="-1059.75" width="3389.34" height="1608.5"/><path class="cls-2" d="M504.43,142.56a86.36,86.36,0,0,0-138.33,101,9.4,9.4,0,0,1,.79,2,10,10,0,0,1,.22,4l-2.69,20.34a9.79,9.79,0,0,0,9.79,9.79L395,276.89a9,9,0,0,1,5.48,1l0,0a86.39,86.39,0,0,0,101.56-13.87C535.86,231.24,536.94,176.64,504.43,142.56Z"/><path class="cls-1" d="M458,175.92c-6.72,0-11.93,1.38-15.93,4.22a20.19,20.19,0,0,0-6.07,7.54c-1.43,3.13-.56,5.93,2.28,7.33a5.64,5.64,0,0,0,2.49.62c2,0,3.75-1.24,4.91-3.49a15.38,15.38,0,0,1,2.48-3.51c2.25-2.26,5.3-3.19,10.52-3.19,6.92,0,11.57,2.89,11.57,7.18V196c0,2-1.26,3.21-3.39,3.35l-16.11,1.46c-4,.35-16.88,2.53-16.88,16.13,0,10.16,8,17.26,19.4,17.26,7.38,0,13.51-2,17.06-5.61a5,5,0,0,0,5.08,4.54h.14c3.16,0,5.21-2.19,5.35-5.74v-31C480.93,183,473,175.92,458,175.92Zm12.25,35c0,7.13-7.2,13.38-15.4,13.38-7.62,0-10.34-3.77-10.34-7.29,0-2.89,2.09-6.51,8-7.17l17.76-2.15Z"/><path class="cls-1" d="M495.79,175.92h-.13c-2.95,0-4.86,2-5,5.33,0,.63,0,43.93,0,47.74,0,3.2,1.86,5.23,4.81,5.29h.13c2.95,0,4.85-2,5-5.33,0-.63,0-43.93,0-47.74C500.57,178,498.73,176,495.79,175.92Z"/><path class="cls-1" d="M495.47,169.87h.15c3.51,0,5.79-2.44,5.94-6.45,0-3.82-2.22-6.24-5.73-6.31h-.15c-3.51,0-5.79,2.44-5.94,6.45C489.76,167.38,492,169.8,495.47,169.87Z"/><path class="cls-3" d="M98.67,230c-1,2.63-2.06,4-4.57,4s-3.77-1.37-4.69-3.89L72.26,182.58a4.73,4.73,0,0,1,2.75-6.4c2.28-.91,5.26-.57,6.4,2.63l12.46,36.12,14.06-35.43c1-2.52,2.74-3.77,4.57-3.77s3.55,1.26,4.57,3.77l14.06,35.43,12.46-36.12c1.14-3.2,4.12-3.54,6.4-2.63a4.73,4.73,0,0,1,2.74,6.4l-17.14,47.55c-.92,2.51-2.17,3.89-4.69,3.89-1.83,0-3.55-1.37-4.57-4L112.5,194.7Z"/><path class="cls-3" d="M158.14,204.88c0-16.12,10.63-30.29,29-30.29s29,14.17,29,30.29-10.63,30.29-29,30.29S158.14,221.1,158.14,204.88Zm48.12,0c0-11.66-7.09-20.69-19.09-20.69s-19.09,9-19.09,20.69,7.09,20.8,19.09,20.8S206.26,216.53,206.26,204.88Z"/><path class="cls-3" d="M253.36,174.59H252.1C238,174.59,227,185.21,227,198.7V229a4.85,4.85,0,0,0,5,5,4.76,4.76,0,0,0,4.91-5V198.36c0-7.66,6.18-14.17,15.2-14.17h1.26c9,0,15.2,6.52,15.2,14.17V229a4.76,4.76,0,0,0,4.91,5,4.85,4.85,0,0,0,5-5V198.7C278.5,185.21,267.41,174.59,253.36,174.59Z"/><path class="cls-3" d="M345,202.37v25.48c0,16.12-10.28,30.06-28.69,30.06-9.6,0-17-2.52-22.4-8.69a4.55,4.55,0,0,1,.57-6.86c1.83-1.71,4.69-1.83,7,.46,2.86,2.86,7.09,5.71,14.86,5.71,11.77,0,18.74-8.8,18.74-20.12v-.34c-4.69,4.46-11,7.09-18.74,7.09-17.83,0-28.12-14.06-28.12-30.29s10.28-30.29,28.12-30.29C334.82,174.59,345,189.11,345,202.37Zm-9.94,2.51c0-11.66-5.83-20.69-17.83-20.69s-19.09,9-19.09,20.69,7.09,20.8,19.09,20.8S335.05,216.53,335.05,204.88Z"/><path class="cls-1" d="M401,174.59h-1.26c-14.06,0-25.15,10.63-25.15,24.11V229a4.85,4.85,0,0,0,5,5,4.76,4.76,0,0,0,4.91-5V198.36c0-7.66,6.18-14.17,15.2-14.17H401c9,0,15.2,6.52,15.2,14.17V229a4.76,4.76,0,0,0,4.91,5,4.85,4.85,0,0,0,5-5V198.7C426.2,185.21,415.11,174.59,401,174.59Z"/></svg>