<svg xmlns="http://www.w3.org/2000/svg" viewBox="0 0 1500 1000"><defs><style>.cls-1{fill:#fff;}.cls-2{fill:#ffd44a;}.cls-3{fill:#ffd34a;}</style></defs><title>ookbee</title><g id="bg"><rect class="cls-1" width="1500" height="1000"/></g><g id="Layer_7" data-name="Layer 7"><path d="M338.36,788.22a136.46,136.46,0,0,1,4.45-35.72A80.75,80.75,0,0,1,356.53,724a64.12,64.12,0,0,1,23.57-18.87q14.31-6.87,34-6.87t33.93,6.87A64.46,64.46,0,0,1,471.52,724a80.75,80.75,0,0,1,13.72,28.52,136.46,136.46,0,0,1,4.45,35.72,133.84,133.84,0,0,1-4.45,35.49,79.45,79.45,0,0,1-13.72,28.15,62.78,62.78,0,0,1-23.45,18.52q-14.2,6.6-33.93,6.62t-34-6.62a62.48,62.48,0,0,1-23.57-18.52,79.45,79.45,0,0,1-13.72-28.15A133.84,133.84,0,0,1,338.36,788.22Zm106.58,0q0-52.44-30.56-52.45-31.28,0-31.27,52.45,0,26.24,7.58,39.1t23.45,12.88Q444.94,840.2,444.94,788.22Z"/><path d="M507,812.52a86,86,0,0,1,4-26.83,57.21,57.21,0,0,1,11.79-20.8,52,52,0,0,1,19.37-13.35q11.55-4.68,26.7-4.69,15.4,0,26.95,4.69a51.93,51.93,0,0,1,19.36,13.35,57.23,57.23,0,0,1,11.8,20.8,86.24,86.24,0,0,1,4,26.83,83.06,83.06,0,0,1-4,26.34,56.08,56.08,0,0,1-11.8,20.46,51.66,51.66,0,0,1-19.36,13.12Q584.24,877,568.84,877q-15.15,0-26.7-4.56a51.7,51.7,0,0,1-19.37-13.12A56.06,56.06,0,0,1,511,838.86,82.78,82.78,0,0,1,507,812.52Zm82.77,0q0-15.39-5.18-23.58c-3.45-5.44-8.7-8.18-15.76-8.18s-12.27,2.74-15.64,8.18-5.05,13.32-5.05,23.58,1.69,17.89,5.05,23.33,8.58,8.19,15.64,8.19,12.31-2.72,15.76-8.19S589.78,822.63,589.78,812.52Z"/><path d="M651.84,749.74a79.41,79.41,0,0,1,10.47-1.69c3.45-.33,6.77-.49,10-.49q4.56,0,9.86.49a72.29,72.29,0,0,1,10.35,1.69V873.62a91.66,91.66,0,0,1-11.31,1.57q-5.06.36-8.9.36c-2.74,0-5.78-.12-9.14-.36a91.28,91.28,0,0,1-11.32-1.57Zm72.91,0a76.59,76.59,0,0,1,10.58-1.46q6.25-.48,11.07-.48c4.17,0,8.37.16,12.63.48a63.13,63.13,0,0,1,10.22,1.46l-29.83,57.73,33.21,66.15a77.69,77.69,0,0,1-10.84,1.46c-4.32.3-8.09.47-11.3.47-4.18,0-8.3-.17-12.4-.47a56.12,56.12,0,0,1-9.73-1.46l-32-64.47Z"/><path d="M787.29,750.22c3.2-.48,6.89-.94,11.08-1.33s8.41-.76,12.73-1.09,8.55-.56,12.64-.72,7.65-.23,10.7-.23q30.07,0,45,8.53T894.35,782q0,9.12-4.21,15.51a37.33,37.33,0,0,1-11.42,10.94,42.55,42.55,0,0,1,16.6,10.35q6.48,6.74,6.49,19,0,22.11-16.36,30.66T837.1,877q-8.43,0-22-.61t-27.79-2.51Zm40.18,47.14h11.8c6.09,0,10.17-1.31,12.25-4a13.19,13.19,0,0,0,3.14-8.3,10.91,10.91,0,0,0-3.26-7.57Q848.18,774,839.5,774q-2.65,0-6.13.12c-2.33.07-4.3.2-5.9.36Zm0,25.27v24.78c.48,0,1.76.08,3.86.23s4.88.24,8.41.24c6.74,0,11.55-1.1,14.44-3.35a11.26,11.26,0,0,0,4.32-9.41,13.65,13.65,0,0,0-.83-4.67,9.1,9.1,0,0,0-3-4,17.69,17.69,0,0,0-6-2.76,38,38,0,0,0-10.1-1.08Z"/><path d="M957.38,824.81q2.65,9.84,9.27,13.94c4.41,2.72,10.22,4.1,17.45,4.1a82.46,82.46,0,0,0,15.64-1.7,93.77,93.77,0,0,0,17.07-5,77.55,77.55,0,0,1,5.9,14.92,70.42,70.42,0,0,1,2.77,18.05A125.1,125.1,0,0,1,981.69,877q-17.33,0-29.72-4.81a52.67,52.67,0,0,1-20.21-13.35,53.73,53.73,0,0,1-11.54-20.34,89.19,89.19,0,0,1,.11-51.48,58.91,58.91,0,0,1,11.57-20.93A54.21,54.21,0,0,1,951.13,752q11.57-5.17,27-5.17a56.58,56.58,0,0,1,22.74,4.32,49.1,49.1,0,0,1,16.94,11.92,51.6,51.6,0,0,1,10.72,18.28,69.93,69.93,0,0,1,3.73,23.2,102.63,102.63,0,0,1-.6,11.69c-.41,3.45-.76,6.28-1.09,8.55Zm19.25-47.41a19.48,19.48,0,0,0-13.23,4.81q-5.52,4.81-6.5,14.93h38.5a23.66,23.66,0,0,0-5.16-14.1Q985.53,777.4,976.63,777.4Z"/><path d="M1086.82,824.81q2.67,9.84,9.27,13.94c4.4,2.72,10.21,4.1,17.44,4.1a82,82,0,0,0,15.63-1.7,94,94,0,0,0,17.09-5,77.55,77.55,0,0,1,5.9,14.92,70,70,0,0,1,2.75,18.05,125,125,0,0,1-43.77,7.93c-11.57,0-21.46-1.62-29.73-4.81a52.89,52.89,0,0,1-20.21-13.35,53.45,53.45,0,0,1-11.53-20.34,89.3,89.3,0,0,1,.1-51.48,58.91,58.91,0,0,1,11.57-20.93A54.3,54.3,0,0,1,1080.56,752q11.55-5.17,27-5.17a56.57,56.57,0,0,1,22.73,4.32,49.33,49.33,0,0,1,17,11.92,51.28,51.28,0,0,1,10.71,18.28,69.93,69.93,0,0,1,3.73,23.2,105.15,105.15,0,0,1-.59,11.69c-.42,3.45-.77,6.28-1.09,8.55Zm19.24-47.41a19.5,19.5,0,0,0-13.23,4.81q-5.52,4.81-6.49,14.93h38.49a23.54,23.54,0,0,0-5.17-14.1Q1115,777.4,1106.06,777.4Z"/><path d="M1041.4,360.8a61.35,61.35,0,0,0-61.35-61.35H908.3V277.76c7.8-12.64,57.23-92.71,68.21-111.54,5.88-10.08,6.84-19.56,2.71-26.73-4.64-8.12-15-12.22-30.66-12.22h-109c-10.91,0-27.38,0-38.63,20-4.84,8.58-38.84,72.74-55.15,103.53L785,133.52a5.45,5.45,0,0,0-10.33-3.45L737.11,242.44l8.7-110.22a5.45,5.45,0,0,0-10.86-.85l-8.51,107.92L711.59,131.06a5.44,5.44,0,1,0-10.79,1.47l17.63,129.09C711.28,236,686.53,147.56,681.7,135a18.6,18.6,0,0,0-17.82-12,22.38,22.38,0,0,0-17.62,8.54,18.51,18.51,0,0,0-2.93,16.62C647.52,162.83,678.92,267,682.58,279v20.44H561.36A61.36,61.36,0,0,0,500,360.8v227a61.36,61.36,0,0,0,61.34,61.36h314.4c59.83,0,21.47,92,21.47,92,76.7,0,144.17-75.15,144.17-153.37ZM849.69,559.94c0,25.55-20.31,46.25-45.39,46.25h-242c-25.06,0-45.38-20.7-45.38-46.25V364.12c0-25.54,20.32-46.25,45.38-46.25h242c25.08,0,45.39,20.71,45.39,46.25Zm-25.15-278.7h69.9v17.62h-198V277l-.29-1c-.36-1.16-35.15-116.47-39.49-131.62a4.74,4.74,0,0,1,.68-4.47,8.46,8.46,0,0,1,6.55-3c3.7,0,4.59,2.34,4.9,3.12,4.24,11,26.85,91.31,38.2,132.2l1.42,5.07h39.06l1.94-3.68C750,272.47,806.85,165,813,154.06c6.78-12.09,14.56-12.95,26.55-12.95h109c14.1,0,17.75,3.68,18.65,5.27,1.5,2.61.5,7.4-2.68,12.85-10.87,18.66-60,98.29-68,111.11h-72a5.45,5.45,0,1,0,0,10.89ZM1023,587.79c0,59.81-45.44,116.82-99.39,131.4,5-21.12,7.66-48.64-5.14-67.81a44.14,44.14,0,0,0-20.66-16.72c41.36-7.72,62.32-36,62.32-77.33V356a46.93,46.93,0,0,0-19.85-38.13h39.77a43,43,0,0,1,43,42.93Z"/><path d="M730.05,422.93a19.93,19.93,0,1,0,20,19.94A19.92,19.92,0,0,0,730.05,422.93Zm0,24.53a4.61,4.61,0,1,1,4.62-4.59A4.62,4.62,0,0,1,730.05,447.46Z"/><path d="M587.43,422.93a19.93,19.93,0,1,0,19.94,19.94A19.94,19.94,0,0,0,587.43,422.93Zm0,24.53a4.61,4.61,0,1,1,4.6-4.59A4.6,4.6,0,0,1,587.43,447.46Z"/><path d="M758.4,343.94H583.64c-25.87,0-46.82,22.44-46.82,50.12V499.33c0,27.68,20.95,50.12,46.82,50.12H758.4c25.85,0,46.81-22.44,46.81-50.12V394.06C805.21,366.38,784.25,343.94,758.4,343.94Zm36.08,155.39c0,21.71-16.19,39.39-36.08,39.39H583.64c-19.89,0-36.08-17.68-36.08-39.39V394.06c0-21.72,16.19-39.39,36.08-39.39H758.4c19.89,0,36.08,17.67,36.08,39.39Z"/><path class="cls-2" d="M804.3,317.87h-242c-25.06,0-45.38,20.71-45.38,46.25V559.94c0,25.55,20.32,46.25,45.38,46.25h242c25.08,0,45.39-20.7,45.39-46.25V364.12C849.69,338.58,829.38,317.87,804.3,317.87Zm.91,181.46c0,27.68-21,50.12-46.81,50.12H583.64c-25.87,0-46.82-22.44-46.82-50.12V394.06c0-27.68,20.95-50.12,46.82-50.12H758.4c25.85,0,46.81,22.44,46.81,50.12Z"/><path class="cls-3" d="M1023,587.79c0,59.81-45.44,116.82-99.39,131.4,5-21.12,7.66-48.64-5.14-67.81a44.14,44.14,0,0,0-20.66-16.72c41.36-7.72,62.32-36,62.32-77.33V356a46.93,46.93,0,0,0-19.85-38.13h39.77a43,43,0,0,1,43,42.93Z"/><path class="cls-1" d="M587.43,438.25a4.61,4.61,0,1,0,4.6,4.62A4.6,4.6,0,0,0,587.43,438.25Z"/><path class="cls-1" d="M730.05,438.25a4.61,4.61,0,1,0,4.62,4.62A4.62,4.62,0,0,0,730.05,438.25Z"/><path class="cls-1" d="M758.4,354.67H583.64c-19.89,0-36.08,17.67-36.08,39.39V499.33c0,21.71,16.19,39.39,36.08,39.39H758.4c19.89,0,36.08-17.68,36.08-39.39V394.06C794.48,372.34,778.29,354.67,758.4,354.67Zm-171,108.12a19.93,19.93,0,1,1,19.94-19.92A19.94,19.94,0,0,1,587.43,462.79Zm142.62,0a19.93,19.93,0,1,1,20-19.92A19.92,19.92,0,0,1,730.05,462.79Z"/><path class="cls-1" d="M824.54,281.24h69.9v17.62h-198V277l-.29-1c-.36-1.16-35.15-116.47-39.49-131.62a4.74,4.74,0,0,1,.68-4.47,8.46,8.46,0,0,1,6.55-3c3.7,0,4.59,2.34,4.9,3.12,4.24,11,26.85,91.31,38.2,132.2l1.42,5.07h39.06l1.94-3.68C750,272.47,806.85,165,813,154.06c6.78-12.09,14.56-12.95,26.55-12.95h109c14.1,0,17.75,3.68,18.65,5.27,1.5,2.61.5,7.4-2.68,12.85-10.87,18.66-60,98.29-68,111.11h-72a5.45,5.45,0,1,0,0,10.89Z"/></g></svg>