<svg xmlns="http://www.w3.org/2000/svg" viewBox="0 0 1500 1000"><defs><style>.cls-1{fill:#fff;}.cls-2{fill:#652f8d;}.cls-3{fill:#8331a7;}</style></defs><title>pantip-purple</title><g id="bg"><rect class="cls-1" width="1500" height="1000"/></g><g id="Layer_1" data-name="Layer 1"><path class="cls-2" d="M524.32,261.52a6.38,6.38,0,0,1-4.44-1.81c-6-5.78-11.9-8.58-17.63-8.27-8.63.45-14.73,7.69-14.79,7.76a6.37,6.37,0,0,1-9.85-8.07c.38-.45,9.52-11.54,23.79-12.37,9.49-.56,18.69,3.43,27.35,11.83a6.37,6.37,0,0,1-4.43,10.93"/><path class="cls-2" d="M329.3,471.57a15.9,15.9,0,0,1-9.34-3,188,188,0,0,1-77.35-151.69c0-103.32,84.06-187.39,187.39-187.39,96,0,175.37,72.57,186.15,165.73l12.87-.26h.44l13,.18C653.22,202,732.59,129.45,828.57,129.45c103.33,0,187.39,84.07,187.39,187.39a188.09,188.09,0,0,1-77.35,151.69,15.91,15.91,0,0,1-18.72-25.74,156.22,156.22,0,0,0,64.25-126c0-85.78-69.79-155.57-155.57-155.57-78.65,0-143.86,58.65-154.15,134.53,15.82.38,34.33,1,53,1.77,105.27,4.58,112.26,11.58,117.89,17.2,4.94,4.94,10.12,14.45,6.77,31.78-5.69,29.7-33,70.62-64.59,84.16a103.91,103.91,0,0,1-135.14-51.55l-.48.15a186.47,186.47,0,0,1-10.41-52.43c-4.05,0-8.09-.1-12.1-.13s-8.13.13-12.22.21a186.83,186.83,0,0,1-10.4,52.34l-.49-.17A103.88,103.88,0,0,1,471.1,430.71c-34-14.59-59.15-58.79-64.21-85.09-2.61-13.61-.47-24,6.4-30.85,5.55-5.57,11.86-11.89,117.41-16.75,18.82-.88,37.52-1.53,53.48-2C574,220.05,508.72,161.27,430,161.27c-85.78,0-155.57,69.79-155.57,155.57a156.15,156.15,0,0,0,64.24,126,15.91,15.91,0,0,1-9.37,28.78M437.68,337.85c1.78,15,22.11,53.39,46,63.6a72.06,72.06,0,0,0,94.69-37.83l.08,0a154.56,154.56,0,0,0,6.77-35.9c-65.47,1.92-128.13,5.67-147.5,10.09m242.56,25.77a72.15,72.15,0,0,0,94.67,37.83c25-10.71,45.57-49.59,46.5-63.7-18.35-4.82-81.8-8.57-148.06-10.22a154.79,154.79,0,0,0,6.82,36.13Z"/><path class="cls-2" d="M776,261.52a6.32,6.32,0,0,1-4.91-2.34c-.16-.17-6.23-7.29-14.79-7.74-5.83-.31-11.68,2.49-17.62,8.27a6.36,6.36,0,0,1-8.88-9.12c8.64-8.4,17.83-12.41,27.34-11.83,14.26.83,23.41,11.89,23.8,12.37A6.36,6.36,0,0,1,776,261.52"/><path class="cls-2" d="M97.5,506.26c0-12,0-25.79.44-37.36,32-.89,71.13-1.31,108-1.31,20,0,40.45,0,65.34,7.54,36,11.56,59.56,48,59.56,85.78,0,35.13-22.67,67.56-52.45,82.68-20.44,10.23-51.55,13.78-62.22,13.78-5.78,0-17.78,0-20.9-.43l-.43,61.78,40.44,1.33c0,11.54,0,24.89-.44,36.88-22.23,0-52.9-.43-80-.43-19.12,0-39.56.43-56.9.43,0-12,.44-25.34.89-36.88l20.89-1.33a1.64,1.64,0,0,0,1.78-1.8V507.15Zm97.78,108.88c0,4.46,8,4.46,15.56,4.46,11.12,0,22.23-4,30.22-11.55,9.34-9.35,14.67-25.35,14.67-44.9,0-32.9-20-59.56-45.33-59.56-6.67,0-12.45.44-14.23,1.32Z"/><path class="cls-2" d="M460.64,741.83c-26.67,13.35-48,19.55-64.89,19.55-23.11,0-57.34-23.57-57.34-52,0-24.42,29.34-67.09,100-67.09h21.34c1.33-21.8-7.11-35.14-27.12-35.14-14.67,0-38.22,12.89-56,24.9-8-9.34-16-20.89-23.11-31.57,32-26.22,64.9-44,107.57-44,34.21,0,68,28.88,68,66.67,0,29.33-.44,71.55-.89,90.67,0,2.66,0,3.57,2.22,3.1L554,716c0,11.58.44,24.9,0,36.44-7.12,2.71-38.68,8.91-74.23,8.91-4.46-4-10.23-11.1-16.89-19.55Zm-31.12-23.11c11.56,0,23.13-5.78,29.79-9.79a3.75,3.75,0,0,0,.88-2.66V675.6a63,63,0,0,0-9.32-.44c-29.34,0-41.78,12.44-41.78,26.67,0,10.22,11.55,16.89,20.43,16.89"/><path class="cls-2" d="M570.87,606.25c0-12,.45-25.33.45-36.45,22.22-1.33,87.56-12.87,90.23-12.87.89,0,.89.43.89,1.33,2.21,9.32,4,18.21,6.22,27.54l2.22.47c43.12-26.24,52.9-29.79,73.34-29.79,19.12,0,37.33,17.32,46.22,32,8.45,13.78,10.24,27.55,10.24,39.55,0,25.34-.89,62.24-1.79,90.69l22.23,1.33c0,11.57,0,24.88-.45,36.45H763.34c-19.12,0-40,.43-55.56.43,0-11.55.43-24.89.43-36.44l17.8-1.33a1.91,1.91,0,0,0,1.76-1.77c.45-18.23,0-43.13,0-60,0-20.89,0-31.55-3.54-38.22-4.46-8.44-10.23-9.77-16.9-9.77-9.78,0-24.89,7.11-35.56,15.53-.44,26.24-1.33,68.46-1.33,93.81l19.11,1.33c0,12,0,24.88-.44,36.45H633.53c-18.21,0-41.33.43-58.66.43,0-11.55.45-24.89.45-36.44l21.78-1.33a1.63,1.63,0,0,0,1.77-1.77V607.14Z"/><path class="cls-2" d="M883.34,748.06c-14.22-12.45-15.55-22.69-15.55-35.12,0-24.9.43-46.23.43-51.55,0-9.35.45-54.25.45-58.23H837.56c0-12.46.44-25.34,1.34-37.78,8.87-.46,20-1.79,28.89-2.23a3.45,3.45,0,0,0,3.11-3.57c.89-12,2.22-26.22,3.11-36.89,22.66-11.11,64.89-24,66.22-24,.9,0,1.35.44,1.35,1.78-.45,9.78-.91,50.21-1.35,62.23,22.67,0,47.57-.45,68.45-.45,0,12.89-.44,28.45-1.77,41.79-18.68,0-46.23-.45-66.68-.45v36.88c-.43,18.23-.43,34.23-.43,54.23,0,12.46,10.67,20,20.44,20,17.78,0,34.66-3.1,48.44-6.66,2.22,12,4,25.78,5.34,37.33-31.11,12-63.55,16-96.45,16a48.06,48.06,0,0,1-34.23-13.32"/><path class="cls-2" d="M1029.13,606.69c0-12.43.43-26.2.9-38.22,24-1.77,96-12,99.56-12,.89,0,.89.45.89,1.32-.45,48.45-1.34,116.46-1.34,160.92l24.45,1.33V756.5h-61.34c-19.13,0-42.68.43-60.46.43,0-11.55,0-24.89.47-36.44l23.54-1.33a1.65,1.65,0,0,0,1.79-1.77V607.59Zm99.57-116c0,24-19.12,40-41.34,40-19.12,0-38.66-16.45-38.66-39.13,0-18.65,16.43-36.88,40.89-36.88,25.77,0,39.11,17.77,39.11,36"/><path class="cls-2" d="M1266.48,582.25c44.89-24,49.77-25.77,68.46-25.77,36.89,0,68,41.78,67.56,88,0,20-5.34,40.87-13.79,59.56a110.65,110.65,0,0,1-33.77,43.13c-8.88,6.66-29.78,14.2-47.58,14.2-16.88,0-29.32-2.21-39.11-6.22l-3.1.88c.44,22.23.44,44.9.44,67.57l36,1.33c0,12,0,24.88-.44,36.45-21.35,0-48,0-71.56.45-17.8,0-40.91,0-58.69.45,0-11.55,0-24.45.45-36.47l21.34-1.77c1.33,0,1.78-.89,1.78-2.22l.44-214.69-28-.45c0-12,.44-24.87.9-36.43,20.88-2.68,88-14.22,90.22-14.22.89,0,.89.44.89.89,1.78,8.45,3.12,16.43,4.89,24.89Zm52.9,37.35c-3.56-5.34-8.89-11.55-17.34-11.55-8.9,0-21.78,4.42-34.67,12.43-.45,24.89-.89,60.46-.89,85.35,0,8.88,17.77,15.54,27.12,15.54,8,0,16.89-3.11,22.65-11.56,6.23-9.3,10.24-25.3,10.24-48.88,0-20.46-2.67-34.66-7.11-41.33"/><path class="cls-3" d="M111.1,793.76H123v55.16h26.76v10H111.1Z"/><path class="cls-3" d="M173.7,838.68c.3,8.49,6.86,12.16,14.49,12.16a37.86,37.86,0,0,0,13.05-2.11l1.74,8.11a42.24,42.24,0,0,1-16.43,3c-15.27,0-24.24-9.39-24.24-23.77,0-13,7.92-25.33,23-25.33,15.27,0,20.29,12.56,20.29,22.9a30,30,0,0,1-.38,5Zm20.67-8.32c.1-4.33-1.83-11.48-9.75-11.48-7.34,0-10.43,6.66-10.92,11.48Z"/><path class="cls-3" d="M259.88,847.56a63.71,63.71,0,0,0,.78,11.32H249.93l-.86-5.22h-.3c-2.8,3.66-7.72,6.25-13.9,6.25-9.47,0-14.79-6.83-14.79-14,0-11.79,10.53-17.88,27.92-17.77v-.77c0-3.11-1.25-8.22-9.57-8.22a24.91,24.91,0,0,0-12.65,3.48l-2.31-7.71c3.47-2.14,9.56-4.19,17-4.19,15.07,0,19.41,9.59,19.41,19.91Zm-11.59-11.7c-8.4-.09-16.42,1.66-16.42,8.8,0,4.64,3,6.76,6.76,6.76A9.73,9.73,0,0,0,248,845a8.09,8.09,0,0,0,.29-2.62Z"/><path class="cls-3" d="M280.56,827c0-6.39-.1-11-.38-15.18h10.24l.48,8.88h.3c2.31-6.56,7.82-10,12.94-10a13.25,13.25,0,0,1,2.8.31v11.1a20.41,20.41,0,0,0-3.58-.27c-5.61,0-9.56,3.57-10.62,9a20.9,20.9,0,0,0-.29,3.57v24.45H280.56Z"/><path class="cls-3" d="M323.17,825.82c0-5.4-.19-9.94-.38-14h10.33l.58,7.06H334a17.28,17.28,0,0,1,15.07-8.14c8.22,0,16.71,5.33,16.71,20.21v27.93H353.89V832.3c0-6.76-2.51-11.88-9-11.88a10,10,0,0,0-9.27,7,10.62,10.62,0,0,0-.59,3.77v27.73H323.17Z"/><path class="cls-3" d="M381.05,870.55a158.15,158.15,0,0,0,6.48-25.5L400,844.1c-2.79,9.07-7.05,19.51-10.81,25.69Z"/><path class="cls-3" d="M474.28,845.92A32.56,32.56,0,0,0,490,850.08c7.53,0,11.78-3.57,11.78-8.91,0-4.92-3.28-7.79-11.49-10.81-10.82-3.86-17.68-9.54-17.68-18.92,0-10.72,8.89-18.75,23.1-18.75A34,34,0,0,1,511.28,796l-2.8,9.56a28.42,28.42,0,0,0-13-3.1c-7.55,0-10.74,4-10.74,7.82,0,5,3.77,7.35,12.46,10.74,11.31,4.25,16.72,10,16.72,19.32,0,10.52-7.92,19.59-24.63,19.59-7,0-14.11-1.92-17.69-4.13Z"/><path class="cls-3" d="M532.06,790.29h11.88V818.2h.2a15.58,15.58,0,0,1,5.89-5.32,16.76,16.76,0,0,1,8.21-2.14c8,0,16.42,5.33,16.42,20.41v27.73H562.78V832.41c0-6.77-2.52-12-9.08-12a9.89,9.89,0,0,0-9.27,6.66,10.64,10.64,0,0,0-.49,3.57v28.23H532.06Z"/><path class="cls-3" d="M632.06,847.56a62.88,62.88,0,0,0,.77,11.32H622.1l-.87-5.22H621c-2.8,3.66-7.74,6.25-13.92,6.25-9.47,0-14.77-6.83-14.77-14,0-11.79,10.52-17.88,27.9-17.77v-.77c0-3.11-1.24-8.22-9.56-8.22A24.91,24.91,0,0,0,598,822.64l-2.31-7.71c3.47-2.14,9.56-4.19,17-4.19,15.07,0,19.42,9.59,19.42,19.91Zm-11.6-11.7c-8.41-.09-16.43,1.66-16.43,8.8,0,4.64,3,6.76,6.77,6.76a9.73,9.73,0,0,0,9.36-6.45,7.83,7.83,0,0,0,.3-2.62Z"/><path class="cls-3" d="M652.74,827c0-6.39-.1-11-.39-15.18h10.24l.48,8.88h.29c2.33-6.56,7.82-10,12.95-10a13.15,13.15,0,0,1,2.79.31v11.1a20.21,20.21,0,0,0-3.57-.27c-5.59,0-9.56,3.57-10.62,9a19.93,19.93,0,0,0-.29,3.57v24.45H652.74Z"/><path class="cls-3" d="M702.87,838.68c.31,8.49,6.86,12.16,14.5,12.16a37.7,37.7,0,0,0,13-2.11l1.75,8.11a42.24,42.24,0,0,1-16.43,3c-15.26,0-24.25-9.39-24.25-23.77,0-13,7.93-25.33,23-25.33,15.27,0,20.3,12.56,20.3,22.9a29.59,29.59,0,0,1-.4,5Zm20.68-8.32c.09-4.33-1.83-11.48-9.76-11.48-7.33,0-10.43,6.66-10.92,11.48Z"/><path class="cls-3" d="M842.19,858.88c-1.34-1.36-2.53-2.7-4.19-4.43a22.41,22.41,0,0,1-15,5.28c-11.7,0-17.54-7.35-17.54-15.09,0-7.11,4.19-12.18,10.27-15.42V829a17,17,0,0,1-4.27-10.66c0-6.64,5.07-13.66,14.86-13.66,7.51,0,13.29,4.67,13.29,11.93,0,5.53-3.25,10-11,14l-.07.22c3.71,4.28,7.81,9,10.74,12.18,2.28-3.49,4-8.53,4.82-14.16h8.7c-1.42,8.22-3.87,15-8.32,20,3,3.33,5.86,6.55,9.1,10Zm-8.79-10c-3.23-3.32-8.3-9-13.35-14.79-2.46,1.73-5.39,4.51-5.39,9,0,5.2,3.88,9.41,9.82,9.41A12.56,12.56,0,0,0,833.4,848.92Zm-13.19-31.54c0,3.23,1.5,5.83,3.86,8.52,4.52-2.83,7.13-5.29,7.13-9,0-2.86-1.66-6-5.38-6S820.21,814,820.21,817.38Z"/><path class="cls-3" d="M924,793.76h37.65v9.75H935.84v18h24v9.66h-24v27.73H924Z"/><path class="cls-3" d="M1020,844.75c0,5.61.18,10.24.39,14.13h-10.34l-.6-7.07h-.28a17.23,17.23,0,0,1-15.17,8.1c-8.48,0-16.31-5.1-16.31-20.45V811.82h11.88V837.4c0,7.83,2.52,12.88,8.77,12.88a9.67,9.67,0,0,0,9.1-6.39,8.6,8.6,0,0,0,.67-3.67v-28.4H1020Z"/><path class="cls-3" d="M1041.07,825.82c0-5.4-.21-9.94-.39-14H1051l.57,7.06h.3a17.24,17.24,0,0,1,15.07-8.14c8.21,0,16.71,5.33,16.71,20.21v27.93h-11.89V832.3c0-6.76-2.51-11.88-9-11.88a10,10,0,0,0-9.26,7,10.84,10.84,0,0,0-.6,3.77v27.73h-11.86Z"/></g></svg>