<svg xmlns="http://www.w3.org/2000/svg" viewBox="0 0 1500 1000"><defs><style>.cls-1{fill:#fff;}.cls-2{fill:#fe000c;}.cls-3{fill:#5a5a5a;}</style></defs><title>exxonmobil</title><g id="bg"><rect class="cls-1" width="1500" height="1000"/></g><g id="Layer_8" data-name="Layer 8"><path class="cls-2" d="M513.09,374.11h30.27v10.34a47.15,47.15,0,0,1,33.12-12.89c22.8,0,40.91,16.85,40.91,43.36v68.6h-32v-60c0-14.73-7.18-23.47-20.18-23.47-12.61,0-20.2,8.24-20.2,23.47v60H513.09Zm336,54.66c0-15.11,11.29-27.54,27-27.54s27,12.41,27,27.54-11.29,27.53-27,27.53-27-12.37-27-27.53Zm-31.55,0c0,31.53,25.26,57.15,58.37,57.15s58.37-25.62,58.37-57.15S909,371.56,875.91,371.56s-58.41,25.67-58.41,57.21Zm-407.41,0c0-15.11,11.29-27.54,27-27.54s27,12.41,27,27.54-11.29,27.53-27,27.53-27-12.37-27-27.52Zm-31.56,0c0,31.53,25.27,57.15,58.37,57.15s58.37-25.62,58.37-57.15-25.26-57.21-58.37-57.21-58.37,25.67-58.37,57.22Zm710.66-54.67h32.4V483.42h-32.4Zm0-39.94h32.4V362h-32.4Zm57.38,0H1179V483.42h-32.41Zm-109.07,94.52a27.35,27.35,0,1,1-27.4-27.3h.14a26.91,26.91,0,0,1,27.26,26.56c0,.26,0,.51,0,.76Zm-53.88,54.74.33-8.34c2.25,1.67,12.28,10.91,33.24,10.91,27.57,0,53.13-24.7,53.13-57.16s-24-57.25-52.73-57.25c-22,0-32,10-33.6,11.21V334.17H952.92V483.43Zm-756,0,33.67-43.36,21,21.26-48.08,60.19h37.61l30.79-39.88,57.92,59h45.39L322.69,457l65.56-82.84H350.64l-48.46,62.21-21-21.08,53.9-67.89H297.59l-36.81,47.36-20-20.61H196l45,45.53-51,63.79ZM84.4,334.16h98.3V362H117.84v30.94h61.94v27H117.84V455.6H182.7v27.85H84.4Zm558.57,0h52.79l25,109h1.12l25.57-108.94h51.36V483.43H767.37V370.73h-1.43l-27.7,112.7H702.91l-27.06-112.7h-1.44v112.7H643Z"/><path class="cls-3" d="M690,582.76H653.5v22.07h33.17v9.82H653.5v23.2h38.12v9.76H643V573h47Zm56.38,30.67a25.06,25.06,0,0,0-1.17-8,14,14,0,0,0-3.72-5.9,15.73,15.73,0,0,0-6.67-3.54,39.4,39.4,0,0,0-10.49-1.21,69.53,69.53,0,0,0-12.8,1.11q-6.11,1.13-10.23,2.2v49.55h10V605.7c.43-.12,1-.32,1.67-.47l2.58-.5,2-.32a44.49,44.49,0,0,1,6.52-.47,16.26,16.26,0,0,1,8.48,1.67,6.59,6.59,0,0,1,2.08,2.09,11,11,0,0,1,1.52,4.45,40.67,40.67,0,0,1,.33,5.4v29.92h10ZM788.5,604a10.93,10.93,0,0,1,4,3.12,13.18,13.18,0,0,1,2.3,4.58,20.31,20.31,0,0,1,.75,5.59H768a17,17,0,0,1,4.45-10.47,13.4,13.4,0,0,1,10.16-4A13.68,13.68,0,0,1,788.5,604Zm13.86,31.68a50.29,50.29,0,0,1-7,3,29.64,29.64,0,0,1-10,1.55,21.59,21.59,0,0,1-7.92-1.29,14.62,14.62,0,0,1-5.39-3.47,13.57,13.57,0,0,1-3.08-5,19,19,0,0,1-1.06-6h37.6c0-.62.13-1.35.18-2.22s0-1.8,0-2.77a34.54,34.54,0,0,0-1.27-9.37,22.32,22.32,0,0,0-4-7.92,19.38,19.38,0,0,0-7-5.49,24.12,24.12,0,0,0-10.36-2,27.4,27.4,0,0,0-10.55,1.95,22.82,22.82,0,0,0-8.17,5.62,25.57,25.57,0,0,0-5.29,8.81,33.82,33.82,0,0,0-1.87,11.67c0,12.29,8.12,25.55,25.65,25.65a41.24,41.24,0,0,0,19.35-3.85ZM1117.86,604a11,11,0,0,1,4,3.12,13.18,13.18,0,0,1,2.3,4.58,20.31,20.31,0,0,1,.75,5.59h-27.57a17,17,0,0,1,4.45-10.47,13.33,13.33,0,0,1,10.16-4,13.68,13.68,0,0,1,5.85,1.15Zm13.84,31.68a50.29,50.29,0,0,1-7,3,29.6,29.6,0,0,1-10,1.55,21.59,21.59,0,0,1-7.92-1.29,14.62,14.62,0,0,1-5.39-3.47,13.57,13.57,0,0,1-3.08-5,18.73,18.73,0,0,1-1-6h37.59c0-.62.13-1.35.18-2.22s0-1.8,0-2.77a34.54,34.54,0,0,0-1.27-9.37,22.3,22.3,0,0,0-4-7.92,19.26,19.26,0,0,0-7-5.49,24.12,24.12,0,0,0-10.36-2,27.4,27.4,0,0,0-10.55,1.95,22.91,22.91,0,0,0-8.16,5.62,25.57,25.57,0,0,0-5.29,8.81,33.81,33.81,0,0,0-1.86,11.67c0,12.29,8.14,25.55,25.63,25.65a41.26,41.26,0,0,0,19.35-3.85ZM1304.26,604a11,11,0,0,1,4,3.12,13,13,0,0,1,2.3,4.58,20.31,20.31,0,0,1,.75,5.59H1283.8a17,17,0,0,1,4.45-10.47,13.44,13.44,0,0,1,10.16-4A13.68,13.68,0,0,1,1304.26,604Zm13.84,31.68a49.77,49.77,0,0,1-6.95,3,29.6,29.6,0,0,1-10,1.55,21.62,21.62,0,0,1-7.92-1.29,14.57,14.57,0,0,1-5.42-3.27,13.49,13.49,0,0,1-3.08-5,19,19,0,0,1-1-6h37.59c0-.62.13-1.35.18-2.22s0-1.8,0-2.77a34.13,34.13,0,0,0-1.25-9.37,22.34,22.34,0,0,0-4-7.92,19.26,19.26,0,0,0-7-5.49,24.12,24.12,0,0,0-10.36-2,27.4,27.4,0,0,0-10.55,2,22.7,22.7,0,0,0-8.16,5.62,25.17,25.17,0,0,0-5.29,8.81,33.83,33.83,0,0,0-1.88,11.67c0,12.29,8.14,25.55,25.65,25.65a41.28,41.28,0,0,0,19.36-3.85ZM1397,604a10.85,10.85,0,0,1,4,3.12,13,13,0,0,1,2.3,4.58,19.93,19.93,0,0,1,.75,5.59h-27.55a17,17,0,0,1,4.45-10.47,13.33,13.33,0,0,1,10.16-4A13.68,13.68,0,0,1,1397,604Zm13.86,31.68a50.29,50.29,0,0,1-6.95,3,29.6,29.6,0,0,1-10,1.55A21.62,21.62,0,0,1,1386,639a14.65,14.65,0,0,1-5.4-3.47,13.59,13.59,0,0,1-3.09-5,19.29,19.29,0,0,1-1-6H1414c0-.62.14-1.35.19-2.22s0-1.8,0-2.77a34.54,34.54,0,0,0-1.27-9.37,22.34,22.34,0,0,0-4-7.92,19.26,19.26,0,0,0-7-5.49,24.12,24.12,0,0,0-10.36-2,27.48,27.48,0,0,0-10.56,1.95,23,23,0,0,0-8.15,5.62,25.57,25.57,0,0,0-5.29,8.81,33.81,33.81,0,0,0-1.86,11.67c0,12.29,8.13,25.55,25.64,25.65a41.24,41.24,0,0,0,19.35-3.85Zm-564-40.12c-.93-.18-2.25-.37-4-.57a52.58,52.58,0,0,0-5.75-.28A54.56,54.56,0,0,0,826,595.81a63.6,63.6,0,0,0-9.16,2.58v49.23h10V605.48a32.9,32.9,0,0,1,5-1.14,43.71,43.71,0,0,1,11.54-.18l3.57.5Zm41.69,41.07a25.71,25.71,0,0,1-5.33,2.17,23.72,23.72,0,0,1-7,.95,16.07,16.07,0,0,1-11.85-4.53q-4.57-4.54-4.57-13a22.81,22.81,0,0,1,1-7,16,16,0,0,1,3.3-5.8,15.57,15.57,0,0,1,5.59-4,20,20,0,0,1,8.12-1.5,30.44,30.44,0,0,1,6.24.56c1.66.37,3.25.76,4.5,1.16Zm-37.2-24.61a32.18,32.18,0,0,0-1.82,10.87,30.17,30.17,0,0,0,1.78,10.61,24.81,24.81,0,0,0,4.82,8.05l.42.44a22.57,22.57,0,0,0,7,4.92l1.12.48a25,25,0,0,0,8.5,1.67H875a30.75,30.75,0,0,0,7-.9l1-.3a34.19,34.19,0,0,0,5.53-2.1v3a20.8,20.8,0,0,1-.9,6.17,12.86,12.86,0,0,1-2.63,4.65,11.72,11.72,0,0,1-2.89,2.3,14.75,14.75,0,0,1-1.66.78,21.9,21.9,0,0,1-6.46,1.67,39,39,0,0,1-10.85-.41,45,45,0,0,1-5.36-1.31l-2.12-.7a25,25,0,0,1-2.51-.93v9.89c1.9.57,4.31,1.22,7.27,2a49,49,0,0,0,11.4,1.1,32.6,32.6,0,0,0,12.4-2.1,21,21,0,0,0,12.92-14.26,37.26,37.26,0,0,0,1.43-10.44V598.61c-2.06-.74-4.75-1.57-8.07-2.44l-.38-.1a46.68,46.68,0,0,0-11.89-1.31A32.21,32.21,0,0,0,865.75,597a25.22,25.22,0,0,0-9,6.11A25.54,25.54,0,0,0,851.36,612.05Zm96.46-15.91L937.26,622c-.33.76-1.47,3.58-1.67,4.25-.45,1.07-.86,2.12-1.25,3.15l-.66,1.78c-.6,1.67-1.17,3.19-1.67,4.69h-.22q-1.06-3.33-2.38-7c-.35-1-.71-1.95-1.1-3-.27-.7-1.32-3.49-1.67-4.22l-9.72-25.58h-11l20.78,51.43-11.17,25.3h10.84l32.59-76.72Zm41.29,11.12v40.36h10V568.37h-10Zm24.48,3.15v37.23h10v-51.5h-10Zm-.48-32.57v6.44h11V573.22h-11Zm70.45,18.35h-10.89l-11,26.9c-.85,2.08-1.71,4.22-2.57,6.44s-1.64,4.43-2.37,6.67h-.21c-.39-1.24-.75-2.37-1.07-3.44s-.63-2-1-2.93l-1.08-3.05c-.4-1.12-.85-2.33-1.33-3.64l-10-26.9H1031l20.16,51.48h10.95Zm61.45,8a15.13,15.13,0,0,0-1.28,6.22,13.72,13.72,0,0,0,1.15,5.86,11.73,11.73,0,0,0,3.33,4.22,22,22,0,0,0,4.92,2.9l.69.3c1.75.73,3.7,1.45,5.85,2.13l1.67.51,4.08,1.26a24.6,24.6,0,0,1,3.72,1.52l.27.15a5,5,0,0,1,2.18,2.37A4.83,4.83,0,0,1,1172,633a5.92,5.92,0,0,1,0,2,5.33,5.33,0,0,1-1.27,2.5,7.71,7.71,0,0,1-3,2,14.33,14.33,0,0,1-4,1,31.26,31.26,0,0,1-5.21.14,39.59,39.59,0,0,1-4.48-.49c-1.47-.25-2.86-.55-4.19-.9a33.27,33.27,0,0,1-3.33-1.06,12.59,12.59,0,0,1-2-.82v8.94a40.09,40.09,0,0,0,7.15,1.9h.29a52.44,52.44,0,0,0,9.85.78,29.43,29.43,0,0,0,9.37-1.28,17.53,17.53,0,0,0,6.27-3.49,13,13,0,0,0,3.26-4.37,16,16,0,0,0,.58-1.5,15.31,15.31,0,0,0,.68-3.48,15.54,15.54,0,0,0,0-3.34,11.85,11.85,0,0,0-.5-2.35,11.71,11.71,0,0,0-2.38-4.15,16.37,16.37,0,0,0-4.32-3.49l-.52-.26a36.13,36.13,0,0,0-5.38-2.24l-1.37-.43c-2.07-.65-4-1.32-5.94-2a33.84,33.84,0,0,1-3.5-1.37,9.44,9.44,0,0,1-2.7-1.8,4.69,4.69,0,0,1-1.39-2.65,6.61,6.61,0,0,1,0-1.54,5.69,5.69,0,0,1,2.09-4q.38-.3.78-.57a11.91,11.91,0,0,1,5.44-1.51,32.54,32.54,0,0,1,4,0,37.65,37.65,0,0,1,4.5.43c1.44.23,2.79.5,4,.83,1,.25,1.9.52,2.78.79.62.2,1.16.38,1.67.58v-9a43.88,43.88,0,0,0-6.08-1.4,50.94,50.94,0,0,0-8.63-.64,30.08,30.08,0,0,0-8.94,1.2,18.94,18.94,0,0,0-6.42,3.34,13.62,13.62,0,0,0-4.15,4.92Zm81.92-35.75h-10v79.25h10v-40a43.1,43.1,0,0,1,6.25-2.5,24.63,24.63,0,0,1,7.66-1.2c4,0,6.84,1,8.62,2.87s2.67,5,2.67,9.2v31.52h10V614.27q0-9.87-4.44-14.71t-14.14-4.84a34.29,34.29,0,0,0-9.34,1.29,34.93,34.93,0,0,0-7.26,2.73Zm135.92,27.22c-.93-.19-2.25-.37-4-.57a50,50,0,0,0-5.74-.28,54.68,54.68,0,0,0-11.19,1.06,63.15,63.15,0,0,0-9.15,2.59v49.23h10V605.48a33,33,0,0,1,5-1.14,43.71,43.71,0,0,1,11.54-.18l3.57.5Z"/><path class="cls-3" d="M1424.22,594.82h-2.65v-10.5h-3.9V582h10.44v2.29h-3.87Zm17.78,0h-2.44V584.15h0l-2.35,10.67h-2.63l-2.34-10.67h0v10.67h-2.68V582.05h3.92l2.3,10h0l2.27-10h3.87Z"/></g></svg>