<svg viewBox="0 0 4246.22 1088.59" xmlns="http://www.w3.org/2000/svg"><g transform="translate(-909.89 -4802.41)"><path d="m1045.89 4802.41v269.41q36.93-36.7 79.9-55t91.89-18.36q106.36 0 180.79 80.36t74.42 206.14q0 121.29-76.91 202.89t-182.3 81.61q-46.93 0-87.39-16.75t-80.4-54.75v57.5h-136v-753zm143.25 321q-64.41 0-106.83 44t-42.42 115q0 72.53 42.42 117.25t106.83 44.75q62.38 0 105.06-45.5t42.69-116q0-70-41.94-114.75t-105.81-44.75z" fill="#a31e59"/><path d="m1936.45 5012.41h136v543h-136v-57.5q-40 38-80.25 54.75t-87.2 16.75q-105.53 0-182.5-81.61t-77-202.89q0-125.76 74.5-206.14t181-80.36q49 0 92 18.38t79.5 55.09zm-143.75 111q-63.4 0-105.33 44.75t-41.92 114.75q0 70.5 42.67 116t105.08 45.5q64.38 0 106.81-44.75t42.44-117.25q0-71-42.44-115t-107.31-44z" fill="#a31e59"/><path d="m2160.73 5012.41h118v68.21q18.9-40.36 50.2-61.28a121 121 0 0 1 68.61-20.93q26.36 0 55.19 13.94l-42.36 117q-23.92-12-39.37-12-31.41 0-53.08 39t-21.67 152.83l.48 26.46v219.75h-136z" fill="#a31e59"/><path d="m3014.82 5125-55.39 34.43q-72-95-196.55-95-99.54 0-165.29 63.86t-65.77 155.14q0 59.4 30.25 111.75a211.64 211.64 0 0 0 83 81.32q52.76 28.94 118.28 28.93 120 0 196-95l55.39 36.44q-39 58.32-104.66 90.44t-149.61 32.12q-128.9 0-213.81-81.86t-84.92-199.15q0-78.84 39.7-146.49t109.16-105.56q69.42-37.92 155.36-37.94a332.3 332.3 0 0 1 104.16 16.46q50.19 16.46 85.17 42.84t59.53 67.27z" fill="#f29d83"/><path d="m3604.36 5012.41v543h-70v-93.31q-43.87 53.4-98.45 80.36t-119.39 26.95q-115.17 0-196.66-83.59t-81.5-203.41q0-117.27 82.25-200.64t197.91-83.36q66.8 0 120.88 28.47t95 85.33v-99.8zm-280.75 53q-58.31 0-107.62 28.72t-78.49 80.66q-29.14 51.93-29.14 109.87 0 57.45 29.39 109.88t79 81.66q49.58 29.22 106.37 29.21 57.29 0 108.61-29t79-78.41q27.66-49.46 27.65-111.38 0-94.38-62-157.81t-152.77-63.4z" fill="#f29d83"/><path d="m3695.82 5012.41h70v93.82q36.43-51.9 74.88-75.85 52.89-32 111.31-32a185.27 185.27 0 0 1 74.88 15.47q35.43 15.48 57.9 41.17t38.94 73.6q34.79-63.87 87-97t112.3-33.19q56.13 0 99.13 28.46t63.84 79.36q20.86 50.9 20.87 152.72v296.46h-71v-296.43q0-87.33-12.42-120t-42.47-52.64q-30-20-71.76-20-50.67 0-92.64 29.94t-61.35 79.85q-19.35 49.89-19.36 166.65v212.56h-70v-277.88q0-98.3-12.21-133.47a111.84 111.84 0 0 0 -42.61-56.39q-30.4-21.2-72.25-21.21-48.36 0-90.46 29.19t-62.34 78.6q-20.19 49.4-20.18 151.18v230h-70z" fill="#f29d83"/><path d="m4590.11 5012.41h70v99.8q41.42-56.86 95.31-85.33t120.25-28.47q115.77 0 198.1 83.36t82.34 200.64q0 119.82-81.59 203.41t-196.85 83.59q-64.87 0-119.26-26.93t-98.3-80.35v292.28h-70zm280.75 53q-90.7 0-152.72 63.44t-62 157.81q0 61.93 27.66 111.38t79.22 78.41q51.56 29 108.87 29 56.3 0 105.88-29.21t79-81.66q29.39-52.43 29.4-109.88 0-57.93-29.15-109.87t-78.47-80.66q-49.39-28.75-107.69-28.76z" fill="#f29d83"/><g fill="#a31e59"><path d="m2430.8 5659.43h35.4q21.36 0 32.84 5.07a40.22 40.22 0 0 1 18.12 15.56 42.64 42.64 0 0 1 6.66 23.32 42 42 0 0 1 -5.83 21.79 43.23 43.23 0 0 1 -17.13 15.93q14 4.76 21.54 11.17a44.62 44.62 0 0 1 11.74 15.5 46.49 46.49 0 0 1 4.2 19.72q0 21.6-15.8 36.56t-42.42 14.95h-49.32zm17.58 17.58v57.5h10.27q18.72 0 27.53-3.48a29.62 29.62 0 0 0 13.94-11 28.81 28.81 0 0 0 5.14-16.66q0-12.33-8.62-19.35t-27.47-7zm0 75.56v68.85h22.25q19.7 0 28.86-3.84a32.75 32.75 0 0 0 14.73-12 31.37 31.37 0 0 0 -2.22-38.58q-7.83-8.91-21.51-12.21-9.18-2.19-31.93-2.2z"/><path d="m2703.38 5706.19v132.81h-16.84v-22.83a73.41 73.41 0 0 1 -24.11 19.66 65.26 65.26 0 0 1 -29.24 6.59q-28.2 0-48.15-20.45t-20-49.74q0-28.69 20.14-49.07t48.46-20.39a62.66 62.66 0 0 1 29.6 7q13.24 7 23.26 20.87v-24.41zm-68.3 13.06a51.55 51.55 0 0 0 -45.54 26.7 53.83 53.83 0 0 0 .06 53.65 52.42 52.42 0 0 0 19.33 19.94 50.54 50.54 0 0 0 26 7.13 53.39 53.39 0 0 0 26.58-7.07 49.61 49.61 0 0 0 19.33-19.14 54.66 54.66 0 0 0 6.77-27.19q0-23.06-15.19-38.54t-37.34-15.48z"/><path d="m2741.83 5706.19h17.09v23.81q10.26-13.66 22.71-20.45a55.85 55.85 0 0 1 27.1-6.77 47.05 47.05 0 0 1 26.43 7.57 45.12 45.12 0 0 1 17 20.38q5.49 12.82 5.49 39.92v68.35h-17.09v-63.35q0-22.95-1.9-30.64-3-13.18-11.4-19.84t-22-6.65a42.13 42.13 0 0 0 -27.78 10.25 48 48 0 0 0 -16.17 25.39q-2.45 9.89-2.45 36.13v48.71h-17.09z"/><path d="m3008.8 5706.19h17.09v105.81q0 28-4.88 40.9a53.18 53.18 0 0 1 -23.32 28.19q-16.59 9.9-39.91 9.89a91.36 91.36 0 0 1 -30.7-4.83q-13.62-4.85-22.16-13t-15.75-23.81h18.56q7.58 13.19 19.55 19.53t29.7 6.34q17.47 0 29.52-6.5t17.17-16.37q5.13-9.85 5.13-31.81v-6.84a64.68 64.68 0 0 1 -23.58 18.74 70 70 0 0 1 -64-2.56 64.69 64.69 0 0 1 -24.93-24.48 66.93 66.93 0 0 1 -8.8-33.81 69.12 69.12 0 0 1 68.68-68.85 63.79 63.79 0 0 1 27.8 6.16q12.89 6.16 24.86 20.33zm-50.41 13.06a54 54 0 0 0 -27 7 50.87 50.87 0 0 0 -19.53 19.41 53.09 53.09 0 0 0 -7.08 26.79q0 21.85 14.65 36.13t38 14.29q23.57 0 37.9-14.16t14.35-37.23a54 54 0 0 0 -6.59-26.8 48.17 48.17 0 0 0 -18.68-18.62 52 52 0 0 0 -26.02-6.81z"/><path d="m3062.39 5654.92h17.09v104.87l61.58-53.6h25.09l-73 63.35 77.27 69.46h-24.05l-66.89-59.8v59.8h-17.09z"/><path d="m3188 5654.92h17.09v75.08q10.38-13.66 22.83-20.45a55.61 55.61 0 0 1 27-6.77 47 47 0 0 1 26.42 7.57 45.11 45.11 0 0 1 17 20.32q5.51 12.77 5.5 40v68.33h-17.09v-63.35q0-22.95-1.83-30.64-3.18-13.18-11.54-19.84t-21.91-6.65a42.11 42.11 0 0 0 -27.77 10.25 48.1 48.1 0 0 0 -16.18 25.39q-2.45 9.77-2.44 36.13v48.71h-17.08z"/><path d="m3452.28 5794.93 14.41 7.57q-7.09 13.92-16.37 22.46a65.07 65.07 0 0 1 -20.9 13 72.87 72.87 0 0 1 -26.27 4.46q-32.49 0-50.82-21.3t-18.33-48.12a71 71 0 0 1 15.51-45q19.68-25.16 52.66-25.15 34 0 54.25 25.76 14.41 18.18 14.66 45.41h-119.5q.48 23.13 14.78 37.93t35.33 14.8a56.52 56.52 0 0 0 19.73-3.53 51.86 51.86 0 0 0 16.32-9.36q6.72-5.91 14.54-18.93zm0-35.76q-3.42-13.68-10-21.85a47.09 47.09 0 0 0 -17.29-13.19 53.07 53.07 0 0 0 -22.61-5q-19.56 0-33.61 12.57-10.28 9.15-15.52 27.47z"/><path d="m3502.94 5706.19h17.06v23.81q10.26-13.66 22.71-20.45a55.85 55.85 0 0 1 27.1-6.77 47.05 47.05 0 0 1 26.43 7.57 45 45 0 0 1 17 20.38q5.51 12.82 5.5 39.92v68.35h-17.04v-63.35q0-22.95-1.9-30.64-3-13.18-11.4-19.84t-22-6.65a42.13 42.13 0 0 0 -27.78 10.25 48.1 48.1 0 0 0 -16.18 25.39q-2.43 9.89-2.44 36.13v48.71h-17.09z"/></g></g></svg>