<svg xmlns="http://www.w3.org/2000/svg" viewBox="0 0 1500 1000"><defs><style>.cls-1{fill:#fff;}.cls-2{fill:#318cc8;}</style></defs><title>metromerce</title><g id="bg"><rect class="cls-1" width="1500" height="1000"/></g><g id="Layer_3" data-name="Layer 3"><path class="cls-2" d="M296.75,859.79V747.34a0,0,0,0,0-.07,0l-48.33,86.22s0,0,0,0H237.9s0,0,0,0l-48.55-86.22a0,0,0,0,0-.07,0V859.79a0,0,0,0,1,0,0H170.83s0,0,0,0V714.21s0,0,0,0h19.43s0,0,0,0L243,808.68a0,0,0,0,0,.06,0l52.89-94.49h19.25s0,0,0,0V859.79s0,0,0,0H296.79S296.75,859.81,296.75,859.79Z"/><path class="cls-2" d="M392.75,861.88a54.55,54.55,0,0,1-22.15-4.42,52.18,52.18,0,0,1-17.23-12,54.68,54.68,0,0,1-11.18-17.74,57.92,57.92,0,0,1-4-21.44,57.08,57.08,0,0,1,4-21.33A53.63,53.63,0,0,1,393,750.89a52.11,52.11,0,0,1,49.75,34,57.54,57.54,0,0,1,3.79,20.61c0,1.51,0,2.87-.1,4.1a23.13,23.13,0,0,1-.3,2.85l0,0H357.31a0,0,0,0,0,0,0A41.34,41.34,0,0,0,361,827a37.36,37.36,0,0,0,8,11.28,37,37,0,0,0,11.18,7.39,33.35,33.35,0,0,0,13.23,2.67A35.27,35.27,0,0,0,403,847a41.6,41.6,0,0,0,8.82-3.59,30.35,30.35,0,0,0,7.28-5.54,22.53,22.53,0,0,0,4.81-7.36l.05,0,15.52,4.29a0,0,0,0,1,0,.06,39.38,39.38,0,0,1-7.27,10.83,48.15,48.15,0,0,1-10.66,8.51,55.1,55.1,0,0,1-13.44,5.64A57.11,57.11,0,0,1,392.75,861.88Zm36.68-62.78a0,0,0,0,0,0,0,38.62,38.62,0,0,0-3.79-14,37.65,37.65,0,0,0-8-11A36.7,36.7,0,0,0,379.42,767a34.94,34.94,0,0,0-11.18,7.19,36.42,36.42,0,0,0-7.8,11,40.46,40.46,0,0,0-3.58,13.91,0,0,0,0,0,0,0Z"/><path class="cls-2" d="M521,854.46l0,0c-1.09.55-2.52,1.19-4.28,1.94s-3.79,1.5-6,2.25a52.13,52.13,0,0,1-7.39,1.85,46.73,46.73,0,0,1-8.31.72,27.34,27.34,0,0,1-17-5.44q-7.18-5.43-7.18-16.92v-72a0,0,0,0,0,0,0H456.18s0,0,0,0V752.78a0,0,0,0,1,0,0h14.49a0,0,0,0,0,0,0V717.08a0,0,0,0,1,0,0h18a0,0,0,0,1,0,0V752.7a0,0,0,0,0,0,0h23.92a0,0,0,0,1,0,0v14.08s0,0,0,0H488.8a0,0,0,0,0,0,0v66.43q.4,6,3.9,8.62a13.13,13.13,0,0,0,8.2,2.66,26.39,26.39,0,0,0,9.75-1.74,42.21,42.21,0,0,0,6-2.75,0,0,0,0,1,0,0Z"/><path class="cls-2" d="M594.41,768.5s0,0,0,0a46.48,46.48,0,0,0-23.86,7,35.57,35.57,0,0,0-14.67,18.25v66s0,0,0,0h-18a0,0,0,0,1,0,0v-107s0,0,0,0h16.75a0,0,0,0,1,0,0v24.63a0,0,0,0,0,.07,0,50.42,50.42,0,0,1,14.49-17.82,36.25,36.25,0,0,1,19.28-7.69h3.49a13.28,13.28,0,0,1,2.44.2,0,0,0,0,1,0,0Z"/><path class="cls-2" d="M656.56,861.88a52.6,52.6,0,0,1-39.08-16.62,54.47,54.47,0,0,1-11-17.64,57.92,57.92,0,0,1-3.89-21.14,57.08,57.08,0,0,1,4-21.33,56.09,56.09,0,0,1,11.07-17.64,52.89,52.89,0,0,1,17-12.1,52.23,52.23,0,0,1,21.85-4.52,53,53,0,0,1,39.08,16.62,55.91,55.91,0,0,1,11.07,17.64,57.09,57.09,0,0,1,4,21.33,58.14,58.14,0,0,1-3.9,21.14,53.27,53.27,0,0,1-28.21,29.74A52.73,52.73,0,0,1,656.56,861.88Zm-35.49-55.19a42.84,42.84,0,0,0,2.77,15.59,39.82,39.82,0,0,0,7.59,12.52,35.64,35.64,0,0,0,11.28,8.4,32.66,32.66,0,0,0,27.69,0,36,36,0,0,0,11.39-8.51A39.82,39.82,0,0,0,689.48,822a43.65,43.65,0,0,0,2.77-15.69,43.15,43.15,0,0,0-2.77-15.49,39.88,39.88,0,0,0-7.69-12.71,36.18,36.18,0,0,0-11.39-8.52,31.77,31.77,0,0,0-13.84-3.08,30.94,30.94,0,0,0-13.85,3.18,36.63,36.63,0,0,0-11.28,8.62A40.69,40.69,0,0,0,623.84,791,43.65,43.65,0,0,0,621.07,806.69Z"/><path class="cls-2" d="M969.6,861.88a54.49,54.49,0,0,1-22.15-4.42,52.22,52.22,0,0,1-17.24-12A54.68,54.68,0,0,1,919,827.72a57.92,57.92,0,0,1-4-21.44A57.08,57.08,0,0,1,919,785a53.63,53.63,0,0,1,50.77-34.06,52.07,52.07,0,0,1,49.75,34,57.34,57.34,0,0,1,3.8,20.61c0,1.51,0,2.87-.11,4.1a23.13,23.13,0,0,1-.3,2.85l0,0H934.15a0,0,0,0,0,0,0A41.78,41.78,0,0,0,937.8,827a37.36,37.36,0,0,0,8,11.28A37,37,0,0,0,957,845.67a33.35,33.35,0,0,0,13.23,2.67,35.29,35.29,0,0,0,9.65-1.34,41.82,41.82,0,0,0,8.82-3.59,30.74,30.74,0,0,0,7.28-5.54,22.69,22.69,0,0,0,4.81-7.36l0,0,15.52,4.29a0,0,0,0,1,0,.06,39.34,39.34,0,0,1-7.26,10.83,48.44,48.44,0,0,1-10.67,8.51A55,55,0,0,1,985,859.82,57.22,57.22,0,0,1,969.6,861.88Zm36.68-62.78a0,0,0,0,0,0,0,38.63,38.63,0,0,0-3.8-14,37.47,37.47,0,0,0-8-11A36.7,36.7,0,0,0,956.26,767a35.05,35.05,0,0,0-11.18,7.19,36.22,36.22,0,0,0-7.79,11,40.47,40.47,0,0,0-3.59,13.91,0,0,0,0,0,0,0Z"/><path class="cls-2" d="M1100.07,768.5s0,0,0,0a46.48,46.48,0,0,0-23.86,7,35.57,35.57,0,0,0-14.67,18.25v66s0,0,0,0h-18a0,0,0,0,1,0,0v-107s0,0,0,0h16.75a0,0,0,0,1,0,0v24.63a0,0,0,0,0,.07,0,50.42,50.42,0,0,1,14.49-17.82,36.25,36.25,0,0,1,19.28-7.69h3.49a13.28,13.28,0,0,1,2.44.2,0,0,0,0,1,0,0Z"/><path class="cls-2" d="M1108.27,806.07a58.48,58.48,0,0,1,3.9-21.33,52.35,52.35,0,0,1,11.08-17.54,53.56,53.56,0,0,1,17.12-11.9,54.53,54.53,0,0,1,22.26-4.41q16,0,27.6,7.08a45.94,45.94,0,0,1,17.51,18.94,0,0,0,0,1,0,.05l-17.57,5.51s0,0,0,0a29.36,29.36,0,0,0-11.48-11.77,32.6,32.6,0,0,0-16.41-4.21,33.48,33.48,0,0,0-14,3,33,33,0,0,0-11.28,8.31,40.75,40.75,0,0,0-7.49,12.51,45.65,45.65,0,0,0,.1,31.59,42.11,42.11,0,0,0,7.7,12.82,34.81,34.81,0,0,0,11.28,8.51,31.71,31.71,0,0,0,13.85,3.08,33.45,33.45,0,0,0,9.33-1.33,36,36,0,0,0,8.41-3.59,31.89,31.89,0,0,0,6.67-5.23,17.89,17.89,0,0,0,4.09-6.43s0,0,0,0l17.57,5.31a.05.05,0,0,1,0,0,38,38,0,0,1-6.86,10.83,42.58,42.58,0,0,1-10.36,8.41,56.84,56.84,0,0,1-28.51,7.6,53.5,53.5,0,0,1-39.39-16.62,54.72,54.72,0,0,1-11.18-17.75A57.88,57.88,0,0,1,1108.27,806.07Z"/><path class="cls-2" d="M1275.46,861.88a54.49,54.49,0,0,1-22.15-4.42,52.22,52.22,0,0,1-17.24-12,54.68,54.68,0,0,1-11.18-17.74,58.12,58.12,0,0,1-4-21.44,57.28,57.28,0,0,1,4-21.33,53.63,53.63,0,0,1,50.77-34.06,52.07,52.07,0,0,1,49.75,34,57.34,57.34,0,0,1,3.8,20.61c0,1.51,0,2.87-.11,4.1a23.13,23.13,0,0,1-.3,2.85l0,0H1240a0,0,0,0,0,0,0,41.78,41.78,0,0,0,3.69,14.53,37.36,37.36,0,0,0,8,11.28,37,37,0,0,0,11.18,7.39,33.38,33.38,0,0,0,13.23,2.67,35.29,35.29,0,0,0,9.65-1.34,41.82,41.82,0,0,0,8.82-3.59,30.54,30.54,0,0,0,7.28-5.54,22.69,22.69,0,0,0,4.81-7.36l0,0,15.52,4.29a0,0,0,0,1,0,.06,39.34,39.34,0,0,1-7.26,10.83,48.44,48.44,0,0,1-10.67,8.51,55,55,0,0,1-13.43,5.64A57.22,57.22,0,0,1,1275.46,861.88Zm36.68-62.78a0,0,0,0,0,0,0,38.63,38.63,0,0,0-3.8-14,37.47,37.47,0,0,0-8-11,36.7,36.7,0,0,0-38.26-7.08,35.05,35.05,0,0,0-11.18,7.19,36.22,36.22,0,0,0-7.79,11,40.47,40.47,0,0,0-3.59,13.91,0,0,0,0,0,0,0Z"/><path class="cls-2" d="M848.73,749.82a44.86,44.86,0,0,0-35.32,17.82,0,0,0,0,1,0,0A44.86,44.86,0,0,0,749.13,760a0,0,0,0,1,0,0v-7.18a0,0,0,0,0,0,0H732.7a0,0,0,0,0,0,0v107a0,0,0,0,0,0,0h18V795.38c0-14,10.45-26.09,24.37-27.3a26.78,26.78,0,0,1,29.17,26.67v65s0,0,0,0h18a0,0,0,0,0,0,0v-65h.2c0-.34,0-.66,0-1a26.75,26.75,0,0,1,53.49,1h.11v65s0,0,0,0h18a0,0,0,0,0,0,0V795.65C894.11,770.7,873.69,749.58,848.73,749.82Z"/><path class="cls-2" d="M869.67,428.57,989.25,312s0-.06,0-.07L824,287.92l0,0L750,138.15a0,0,0,0,0-.06,0L676.06,287.9l0,0-165.26,24s0,.05,0,.07L630.33,428.57a0,0,0,0,1,0,0L602.11,593.19s0,.06.06,0L750,515.52h0l147.81,77.71s.06,0,.06,0L869.66,428.6A0,0,0,0,1,869.67,428.57ZM823.74,462.2s0,0,0,0H796s0,0,0,0V369.86a0,0,0,0,0-.06,0l-44.43,44.43s0,0,0,0l-44.44-44.43a0,0,0,0,0-.06,0V462.2s0,0,0,0H679.08s0,0,0,0V317.57s0,0,0,0h9l63.33,63.32s0,0,0,0l63.32-63.32h9s0,0,0,0Z"/></g></svg>