<svg xmlns="http://www.w3.org/2000/svg" xmlns:xlink="http://www.w3.org/1999/xlink" viewBox="0 0 1500 1000"><defs><style>.cls-1,.cls-2{fill:none;}.cls-1{clip-rule:evenodd;}.cls-3{fill:#fff;}.cls-4{clip-path:url(#clip-path);}.cls-5{clip-path:url(#clip-path-2);}.cls-6{fill:#1f5c87;}.cls-7{clip-path:url(#clip-path-3);}.cls-8{clip-path:url(#clip-path-5);}.cls-9{clip-path:url(#clip-path-7);}.cls-10{clip-path:url(#clip-path-9);}.cls-11{clip-path:url(#clip-path-11);}.cls-12{clip-path:url(#clip-path-13);}.cls-13{clip-path:url(#clip-path-15);}.cls-14{clip-path:url(#clip-path-17);}.cls-15{clip-path:url(#clip-path-19);}.cls-16{clip-path:url(#clip-path-21);}.cls-17{clip-path:url(#clip-path-23);}.cls-18{fill:#4fbfc1;}.cls-19{clip-path:url(#clip-path-25);}.cls-20{clip-path:url(#clip-path-27);}.cls-21{clip-path:url(#clip-path-29);}</style><clipPath id="clip-path"><polygon class="cls-1" points="1366.19 482.62 1366.19 462.78 1361.54 462.78 1361.54 460.31 1372.69 460.31 1372.69 462.78 1368.02 462.78 1368.02 482.62 1366.19 482.62"/></clipPath><clipPath id="clip-path-2"><rect class="cls-2" x="54.11" y="302.26" width="1376.78" height="391.5"/></clipPath><clipPath id="clip-path-3"><polygon class="cls-1" points="1390.93 460.31 1383.83 477.11 1376.75 460.31 1372.69 460.31 1372.69 482.62 1375.53 482.62 1375.53 464.26 1383.24 482.62 1384.4 482.62 1392.17 464.26 1392.17 482.62 1395 482.62 1395 460.31 1390.93 460.31"/></clipPath><clipPath id="clip-path-5"><path class="cls-1" d="M533.39,460.31H483.15a2.89,2.89,0,0,0-2.77,3v8a2.89,2.89,0,0,0,2.77,3h18.18v61.07a2.89,2.89,0,0,0,2.77,3h8.24a2.88,2.88,0,0,0,2.75-3V474.31h18.3a2.88,2.88,0,0,0,2.76-3v-8a2.88,2.88,0,0,0-2.76-3"/></clipPath><clipPath id="clip-path-7"><path class="cls-1" d="M610.38,462.19a2.69,2.69,0,0,0-2.48-1.88H598a2.69,2.69,0,0,0-2.49,1.88l-25.72,72.07a3.35,3.35,0,0,0,.26,2.8,2.59,2.59,0,0,0,2.21,1.32h9.12a2.68,2.68,0,0,0,2.48-1.89l5-14.1h28.26l5,14.1a2.69,2.69,0,0,0,2.48,1.89h9.26a2.85,2.85,0,0,0,2.67-3,3.22,3.22,0,0,0-.61-1.91Zm-17.08,46.2L603,480.8l9.62,27.59Z"/></clipPath><clipPath id="clip-path-9"><path class="cls-1" d="M700.25,490.72c-8.7-2.47-14-4.29-14-8.62,0-4.9,4.39-8.2,10.92-8.2a22.29,22.29,0,0,1,17.23,7.44,3.46,3.46,0,0,0,2.13,1,2.77,2.77,0,0,0,2.09-1.06l5-6.4a3,3,0,0,0-.13-3.85c-6.31-7-15.2-10.67-25.72-10.67-14.88,0-25.67,9.39-25.67,22.31,0,15.72,13.41,19.54,24.19,22.61,9.49,2.7,15.3,4.65,15.3,10.42,0,4.42-3.39,9.15-12.91,9.15a24.93,24.93,0,0,1-18.94-9,2.65,2.65,0,0,0-2.16-1,2.71,2.71,0,0,0-2.1,1.13l-4.9,6.6a3,3,0,0,0,.11,3.73c4.68,5.52,13.27,12.09,27.68,12.09,20.19,0,27.39-12.12,27.39-23.47,0-16.93-14.75-21.13-25.52-24.19"/></clipPath><clipPath id="clip-path-11"><path class="cls-1" d="M785.84,497.58l26-32.28a3.22,3.22,0,0,0,.44-3.22,2.76,2.76,0,0,0-2.51-1.77H799.42a2.67,2.67,0,0,0-2.09,1.05L773,492.45V463.31a2.89,2.89,0,0,0-2.76-3H762a2.88,2.88,0,0,0-2.75,3v72.07a2.88,2.88,0,0,0,2.75,3h8.22a2.89,2.89,0,0,0,2.76-3V512.32l3.83-4.75,23,29.74a2.65,2.65,0,0,0,2.1,1.07h10.34a2.89,2.89,0,0,0,2.76-3,3.08,3.08,0,0,0-1.25-2.51Z"/></clipPath><clipPath id="clip-path-13"><path class="cls-1" d="M946.12,460.31h-9a2.8,2.8,0,0,0-2.64,2.23l-11.83,49.3L910.3,462.52a2.79,2.79,0,0,0-2.63-2.21h-6.78a2.77,2.77,0,0,0-2.63,2.21l-12.33,49.36L874,462.54a2.77,2.77,0,0,0-2.63-2.23h-9a2.64,2.64,0,0,0-2.18,1.2,3.28,3.28,0,0,0-.44,2.63l18.64,72.06a2.77,2.77,0,0,0,2.62,2.18h8.83a2.78,2.78,0,0,0,2.63-2.21l11.79-47.52L916,536.17a2.78,2.78,0,0,0,2.63,2.21h8.83a2.77,2.77,0,0,0,2.62-2.18l18.64-72.06a3.24,3.24,0,0,0-.44-2.63,2.64,2.64,0,0,0-2.18-1.2"/></clipPath><clipPath id="clip-path-15"><path class="cls-1" d="M1026.92,460.31c-19.39,0-33.46,16.41-33.46,39s14.07,39,33.46,39,33.46-16.41,33.46-39-14.07-39-33.46-39m0,64.5c-12.11,0-20.25-10.23-20.25-25.46s8.14-25.47,20.25-25.47,20.26,10.23,20.26,25.47-8.15,25.46-20.26,25.46"/></clipPath><clipPath id="clip-path-17"><path class="cls-1" d="M1136.18,508.11c6.79-2.54,12.74-10.11,12.74-23.07,0-14.56-8-24.73-19.53-24.73H1107.3c-1.27,0-2.3,1.34-2.3,3v72.06c0,1.66,1,3,2.3,3h6.83c1.27,0,2.3-1.34,2.3-3V509.75h7.42L1137.18,537a2.25,2.25,0,0,0,1.94,1.38h8.2c1.26,0,2.3-1.34,2.3-3a3.49,3.49,0,0,0-.83-2.31Zm1.07-23.07c0,6.47-3.5,10.82-8.68,10.82h-12.14V474.32h12.14C1133.84,474.32,1137.25,478.52,1137.25,485Z"/></clipPath><clipPath id="clip-path-19"><path class="cls-1" d="M1247.23,524.38h-28.06V463.31a2.89,2.89,0,0,0-2.77-3h-8.25a2.89,2.89,0,0,0-2.77,3v72.07a2.89,2.89,0,0,0,2.77,3h39.08a2.89,2.89,0,0,0,2.77-3v-8a2.89,2.89,0,0,0-2.77-3"/></clipPath><clipPath id="clip-path-21"><path class="cls-1" d="M1322,460.31h-24.38a3,3,0,0,0-3,3v72.06a3,3,0,0,0,3,3H1322c23.3,0,39.57-16,39.57-39,0-22.65-16.64-39.09-39.57-39.09m24.42,39.09c0,12.44-7.55,25-24.42,25h-12.53V474.32H1322c14.83,0,24.42,9.84,24.42,25.08"/></clipPath><clipPath id="clip-path-23"><path class="cls-1" d="M90,582.58l.09-166.64a17.5,17.5,0,0,1,8.4-15.06l139.36-83.24a16.29,16.29,0,0,1,16.8,0L393.92,401a17.54,17.54,0,0,1,8.39,15.07l-.08,166.64a17.55,17.55,0,0,1-8.41,15.07L254.46,681.06a16.31,16.31,0,0,1-16.8,0L98.4,597.66A17.56,17.56,0,0,1,90,582.58"/></clipPath><clipPath id="clip-path-25"><path class="cls-1" d="M184.81,538.38c9.22,0,16.73-5,16.73-11.21V505c0-6.18-7.51-11.21-16.73-11.21s-16.73,5-16.73,11.21v22.19c0,6.19,7.5,11.21,16.73,11.21"/></clipPath><clipPath id="clip-path-27"><path class="cls-1" d="M285.19,504.92c9.22,0,16.73-5,16.73-11.21V471.52c0-6.18-7.51-11.21-16.73-11.21s-16.73,5-16.73,11.21v22.19c0,6.18,7.5,11.21,16.73,11.21"/></clipPath><clipPath id="clip-path-29"><path class="cls-1" d="M329.89,450.36c0-6.83,6.22-12.36,13.9-12.36s13.9,5.53,13.9,12.36v63c0,3.51.35,15.76-9.34,25.35-5,5-14.42,10.86-30.85,10.86h-59c-16.43,0-25.84-5.9-30.84-10.86-9.7-9.59-9.35-21.91-9.35-25.35V477.69c0-5.07-1.29-8.67-4-11-3.81-3.34-10.3-4.05-12.52-4H148.52c-7.68,0-13.9-5.53-13.9-12.36S140.84,438,148.52,438h52.73c3.17-.07,19.83.16,32.25,10.79,5.73,4.91,12.57,13.9,12.57,28.89v37.45c0,1.06.06,5,2.3,7.1s6.72,2.59,10.09,2.59h59c3.37,0,7.86-.45,10.09-2.59s2.3-6.08,2.3-7.3Z"/></clipPath></defs><title>taskworld</title><g id="bg"><rect class="cls-3" width="1500" height="1000"/></g><g id="Layer_4" data-name="Layer 4"><g class="cls-4"><g class="cls-5"><rect class="cls-6" x="1345.23" y="444" width="43.78" height="54.93"/></g></g><g class="cls-7"><g class="cls-5"><rect class="cls-6" x="1356.38" y="444" width="54.93" height="54.93"/></g></g><g class="cls-8"><g class="cls-5"><rect class="cls-6" x="464.07" y="444" width="88.39" height="110.7"/></g></g><g class="cls-9"><g class="cls-5"><rect class="cls-6" x="553.3" y="444" width="99.55" height="110.7"/></g></g><g class="cls-10"><g class="cls-5"><rect class="cls-6" x="653.69" y="444" width="88.39" height="110.7"/></g></g><g class="cls-11"><g class="cls-5"><rect class="cls-6" x="742.92" y="444" width="88.39" height="110.7"/></g></g><g class="cls-12"><g class="cls-5"><rect class="cls-6" x="843.3" y="444" width="121.86" height="110.7"/></g></g><g class="cls-13"><g class="cls-5"><rect class="cls-6" x="977.15" y="444" width="99.55" height="110.7"/></g></g><g class="cls-14"><g class="cls-5"><rect class="cls-6" x="1088.69" y="444" width="77.24" height="110.7"/></g></g><g class="cls-15"><g class="cls-5"><rect class="cls-6" x="1189.07" y="444" width="77.24" height="110.7"/></g></g><g class="cls-16"><g class="cls-5"><rect class="cls-6" x="1278.3" y="444" width="99.55" height="110.7"/></g></g><g class="cls-17"><g class="cls-5"><rect class="cls-18" x="73.69" y="299" width="344.93" height="400.7"/></g></g><g class="cls-19"><g class="cls-5"><rect class="cls-3" x="151.76" y="477.46" width="66.09" height="77.24"/></g></g><g class="cls-20"><g class="cls-5"><rect class="cls-3" x="252.15" y="444" width="66.09" height="77.24"/></g></g><g class="cls-21"><g class="cls-5"><rect class="cls-3" x="118.3" y="421.69" width="255.7" height="144.16"/></g></g></g></svg>