<svg xmlns="http://www.w3.org/2000/svg" viewBox="0 0 1500 1000"><defs><style>.cls-1{fill:#fff;}.cls-2,.cls-4{fill:#50b0e1;stroke:#50b0e1;}.cls-2,.cls-3,.cls-4{stroke-linecap:round;stroke-linejoin:round;}.cls-2,.cls-3{fill-rule:evenodd;}.cls-3{fill:#1798c2;stroke:#1798c2;}</style></defs><title>byteark</title><g id="bg"><rect class="cls-1" width="1500" height="1000"/></g><g id="Layer_6" data-name="Layer 6"><polygon class="cls-2" points="591.89 516.01 455.17 516.01 455.17 652.78 591.89 652.78 591.89 516.01 591.89 516.01"/><polygon class="cls-2" points="712.06 607.24 638.43 607.24 638.43 680.9 712.06 680.9 712.06 607.24 712.06 607.24"/><polygon class="cls-2" points="819.8 609.9 764.64 609.9 764.64 665.08 819.8 665.08 819.8 609.9 819.8 609.9"/><polygon class="cls-2" points="942.68 510.45 846.55 510.45 846.55 606.62 942.68 606.62 942.68 510.45 942.68 510.45"/><polygon class="cls-2" points="1047.22 562.38 973.01 562.38 973.01 636.62 1047.22 636.62 1047.22 562.38 1047.22 562.38"/><polygon class="cls-2" points="1155.06 508.18 1090.86 508.18 1090.86 572.4 1155.06 572.4 1155.06 508.18 1155.06 508.18"/><path class="cls-3" d="M423,562.2H327.38A219.67,219.67,0,0,1,315,489.26c0-121.53,98.63-220.2,220.12-220.2q5.1,0,10.15.23c31.35-83.37,111.85-142.75,206.1-142.75a220.08,220.08,0,0,1,189,107.26,223.6,223.6,0,0,1,24.55-1.35c121.49,0,220.12,98.66,220.12,220.2a220.69,220.69,0,0,1-3.76,40.67H1072.9v48.06H968.09V486H815.45v91.3h-32l0,0H736.94l0,0H621.07v-88.8H423V562.2Zm622.22-148.31H982.07V477.1h63.19V413.89ZM732.1,371.54H636.89v95.25H732.1V371.54ZM805,307.08H745.65v59.38H805V307.08Z"/><path class="cls-4" d="M315,873V694.63h63.68q29.28,0,45,10.94t15.74,30.84a36.85,36.85,0,0,1-9.58,25.24A50.08,50.08,0,0,1,405.4,776.7v.5q18.66,2.35,29.82,14t11.16,28.48q0,24.49-17.2,38.86t-47,14.36Zm39.4-148.73v42.29h17.33q12.19,0,19.21-6t7-16.6q0-19.65-28.79-19.65Zm0,72.13v47h21.35q13.67,0,21.41-6.47t7.75-17.66q0-10.69-7.63-16.79T376,796.35Z"/><path class="cls-4" d="M563,733.82l-44.54,89.85v49.59H487.64v-49l-43.4-90.43h35.2l22,52q.57,1.46,3.15,11.37H505a50.72,50.72,0,0,1,3-11l22.41-52.41Z"/><polygon class="cls-4" points="680.88 759.49 639.04 759.49 639.04 873.21 605.89 873.21 605.89 759.49 564.25 759.49 564.25 733.94 680.88 733.94 680.88 759.49 680.88 759.49"/><polygon class="cls-4" points="766.41 873.24 689.58 873.24 689.58 733.79 763.47 733.79 763.47 759.37 718.44 759.37 718.44 790.39 760.34 790.39 760.34 815.87 718.44 815.87 718.44 847.76 766.41 847.76 766.41 873.24 766.41 873.24"/><path class="cls-4" d="M946.48,873.37H902.42l-12.77-39.71H825.82l-12.65,39.71H769.36l65.34-178.5h47.94l63.84,178.5Zm-66.09-70.58-19.27-60a77.47,77.47,0,0,1-3-16.06h-1A67.77,67.77,0,0,1,854,742.29l-19.52,60.5Z"/><path class="cls-4" d="M1067.35,873.41H1032l-21.26-35.87q-2.38-4.08-4.58-7.29a40.18,40.18,0,0,0-4.43-5.49,17.49,17.49,0,0,0-4.68-3.5,11.63,11.63,0,0,0-5.29-1.22h-8.29v53.37h-30.8V734h48.82q49.77,0,49.77,37.91a40,40,0,0,1-2.19,13.46,37.68,37.68,0,0,1-6.2,11.13,39.32,39.32,0,0,1-9.68,8.55,49.27,49.27,0,0,1-12.63,5.64v.39a19.55,19.55,0,0,1,5.91,3.16,42.84,42.84,0,0,1,5.53,5.1,72.43,72.43,0,0,1,5.1,6.27c1.62,2.24,3.1,4.42,4.44,6.56l25.84,41.22ZM983.44,757.54v38.78h13.35q9.91,0,15.92-5.83a19.63,19.63,0,0,0,6.1-14.68q0-18.27-21.45-18.27Z"/><path class="cls-4" d="M1185,873.46h-38.89l-39.85-60.54a57.79,57.79,0,0,1-3.62-7.68h-.48v68.22h-30.79V734.1h30.79V800h.48q1.14-2.73,3.81-7.78l37.75-58.12h36.7l-47.67,66.48L1185,873.46Z"/></g></svg>