<svg xmlns="http://www.w3.org/2000/svg" viewBox="0 0 1500 1000"><defs><style>.cls-1{fill:#fff;}.cls-2{fill:#405faa;}.cls-3{fill:#351b6f;}.cls-4{fill:#ddd;}.cls-5{fill:#231f20;}</style></defs><title>kulap</title><g id="bg"><rect class="cls-1" width="1500" height="1000"/></g><g id="Layer_9" data-name="Layer 9"><g id="_Group_" data-name="&lt;Group&gt;"><g id="_Group_2" data-name="&lt;Group&gt;"><polygon id="_Path_" data-name="&lt;Path&gt;" class="cls-2" points="373.04 178.83 319.53 232.33 321.65 234.45 321.65 739.99 428.47 739.99 576.54 591.92 576.54 384.23 577.49 383.28 373.04 178.83"/><polygon id="_Path_2" data-name="&lt;Path&gt;" class="cls-3" points="219.07 234.45 71 382.52 71 591.92 269.59 789.28 323.09 735.77 321.65 739.99 321.65 234.45 219.07 234.45"/></g><polygon id="_Path_3" data-name="&lt;Path&gt;" class="cls-1" points="323.89 658.64 392.08 658.64 411.99 638.74 323.89 550.64 323.89 658.64"/><polygon id="_Path_4" data-name="&lt;Path&gt;" class="cls-4" points="177.71 404.46 157.8 424.36 157.8 561.6 254.84 658.64 323.89 658.64 323.89 550.64 177.71 404.46"/><polygon id="_Path_5" data-name="&lt;Path&gt;" class="cls-1" points="323.89 429.09 323.89 510.18 364.43 469.63 323.89 429.09"/><path id="_Path_6" data-name="&lt;Path&gt;" class="cls-4" d="M321.48,426.67l-47.41,47.4,38.12,38.11a6.84,6.84,0,0,0,9.69,0h0a6.81,6.81,0,0,0,2-4.84V429.09Z"/><polygon id="_Path_7" data-name="&lt;Path&gt;" class="cls-4" points="238.98 438.98 260.7 460.7 321.48 399.93 323.89 402.34 323.89 354.07 238.98 438.98"/><path id="_Path_8" data-name="&lt;Path&gt;" class="cls-1" d="M330.41,530.41l25.21,25.21,93.11-93.12L336.94,350.71a6.86,6.86,0,0,0-9.69,0l-1.35,1.35a6.85,6.85,0,0,0-2,4.85v45.43l67.29,67.29Z"/><polygon id="_Path_9" data-name="&lt;Path&gt;" class="cls-4" points="323.89 327.32 254.84 327.32 191.08 391.08 225.61 425.61 323.89 327.32"/><polygon id="_Path_10" data-name="&lt;Path&gt;" class="cls-1" points="368.83 568.76 424.98 625.37 489 561.88 489.46 449.13 368.83 568.76"/><polygon id="_Path_11" data-name="&lt;Path&gt;" class="cls-1" points="488 423.23 392.08 327.32 340.3 327.32 462.1 449.13 488 423.23"/></g><g id="_Group_3" data-name="&lt;Group&gt;"><g id="_Group_4" data-name="&lt;Group&gt;"><path id="_Compound_Path_" data-name="&lt;Compound Path&gt;" d="M726.58,494.26l-12.31,11v49.47H674.81V410.39h39.46v51.38l58-51.38h51l-69.81,61.7,71.11,82.65h-46Z"/><path id="_Compound_Path_2" data-name="&lt;Compound Path&gt;" d="M830.18,410.39h39.45v90.14a27.45,27.45,0,0,0,2.19,11.39,20,20,0,0,0,6.3,7.92,28,28,0,0,0,10.13,4.58,56.52,56.52,0,0,0,13.66,1.49,55.82,55.82,0,0,0,13.49-1.49,28.3,28.3,0,0,0,10.17-4.58,20.3,20.3,0,0,0,6.38-7.92,27,27,0,0,0,2.22-11.39V410.39h39.15v88q0,14.91-4.29,26.11a45.32,45.32,0,0,1-13.11,18.7q-8.83,7.49-22.25,11.24t-31.76,3.74q-36.64,0-54.18-15t-17.55-44.81Z"/><path id="_Compound_Path_3" data-name="&lt;Compound Path&gt;" d="M992.12,410.39h39.15V521.56H1109v33.18H992.12Z"/><path id="_Compound_Path_4" data-name="&lt;Compound Path&gt;" d="M1223.56,516.21H1170l-17.51,38.53h-42.28l68.89-144.35H1216l69,144.35h-43.88Zm-27-59.8-13.15,31h27.29Z"/><path id="_Compound_Path_5" data-name="&lt;Compound Path&gt;" d="M1294.35,410.39h77.39a90.38,90.38,0,0,1,24.31,2.94A48.35,48.35,0,0,1,1413.6,422a36.13,36.13,0,0,1,10.63,14.14,49.36,49.36,0,0,1,3.55,19.35,52.7,52.7,0,0,1-3.59,19.84,41.58,41.58,0,0,1-10.56,15.29,47.64,47.64,0,0,1-17.16,9.87A73.07,73.07,0,0,1,1373,504h-39.15v50.77h-39.46Zm76.08,61a24.41,24.41,0,0,0,8.53-1.3,15.36,15.36,0,0,0,5.62-3.44,12.62,12.62,0,0,0,3.09-4.89,17.08,17.08,0,0,0,1-5.66,14.5,14.5,0,0,0-.91-5.12,11.9,11.9,0,0,0-2.76-4.28,13.51,13.51,0,0,0-4.55-2.95,16.53,16.53,0,0,0-6.23-1.11h-40.37V471.4Z"/></g><g id="_Group_5" data-name="&lt;Group&gt;"><path id="_Compound_Path_6" data-name="&lt;Compound Path&gt;" class="cls-5" d="M684.51,590.57v29.84h-3V590.57h-9.39v-2.78h21.84v2.78Z"/><path id="_Compound_Path_7" data-name="&lt;Compound Path&gt;" class="cls-5" d="M714.53,620.41V606.72c0-2.62-.47-4.53-1.41-5.77a5.17,5.17,0,0,0-4.39-1.85,6.64,6.64,0,0,0-2.68.56,6.52,6.52,0,0,0-2.23,1.64,8,8,0,0,0-1.52,2.61,9.84,9.84,0,0,0-.58,3.46v13h-2.91V585.93h2.91v15.21h.1a8.64,8.64,0,0,1,7.83-4.57,7.14,7.14,0,0,1,5.84,2.39q1.95,2.38,2,7v14.4Z"/><path id="_Compound_Path_8" data-name="&lt;Compound Path&gt;" class="cls-5" d="M725.84,609.29a13.36,13.36,0,0,0,.57,3.84A8.2,8.2,0,0,0,728,616a6.73,6.73,0,0,0,2.49,1.81,8.46,8.46,0,0,0,3.31.62,11.89,11.89,0,0,0,7.44-2.75v2.86a13.52,13.52,0,0,1-8.1,2.39,10.77,10.77,0,0,1-4.25-.81,8.76,8.76,0,0,1-3.25-2.38,10.63,10.63,0,0,1-2.07-3.84,16.78,16.78,0,0,1-.74-5.18,14.29,14.29,0,0,1,.8-4.84,11.88,11.88,0,0,1,2.21-3.86,10.29,10.29,0,0,1,3.34-2.55,10.36,10.36,0,0,1,8.21-.14,7.84,7.84,0,0,1,2.9,2.25,10.14,10.14,0,0,1,1.79,3.55,16.53,16.53,0,0,1,.61,4.68v1.46Zm13.83-2.55a8.86,8.86,0,0,0-1.73-5.64,5.66,5.66,0,0,0-4.62-2,7,7,0,0,0-2.73.52,6.39,6.39,0,0,0-2.22,1.51,7.94,7.94,0,0,0-1.58,2.41,11.72,11.72,0,0,0-.88,3.2Z"/><path id="_Compound_Path_9" data-name="&lt;Compound Path&gt;" class="cls-5" d="M761.62,620.41V587.79h8.92a11.22,11.22,0,0,1,3.64.55,8.36,8.36,0,0,1,2.78,1.53,6.66,6.66,0,0,1,1.76,2.38,7.42,7.42,0,0,1,.62,3,8.73,8.73,0,0,1-.39,2.64,7.89,7.89,0,0,1-1.11,2.23,7.48,7.48,0,0,1-1.79,1.76,8.93,8.93,0,0,1-2.4,1.17v.09a8.85,8.85,0,0,1,3,.8,7.55,7.55,0,0,1,2.3,1.65,7.36,7.36,0,0,1,1.47,2.4,8.48,8.48,0,0,1,.53,3,9.39,9.39,0,0,1-.75,3.79,8.64,8.64,0,0,1-2.1,2.95,9.68,9.68,0,0,1-3.23,1.93,12,12,0,0,1-4.11.68Zm3-29.84v11.57h4.23a9.66,9.66,0,0,0,3-.43,6.3,6.3,0,0,0,2.3-1.25,5.52,5.52,0,0,0,1.47-2,6.4,6.4,0,0,0,.51-2.61c0-3.54-2.2-5.3-6.6-5.3Zm0,14.3v12.79h5.62a8.27,8.27,0,0,0,5.56-1.69,6.06,6.06,0,0,0,1.94-4.82c0-4.18-2.83-6.28-8.52-6.28Z"/><path id="_Compound_Path_10" data-name="&lt;Compound Path&gt;" class="cls-5" d="M788.54,609.29a13,13,0,0,0,.58,3.84,8,8,0,0,0,1.56,2.89,6.73,6.73,0,0,0,2.49,1.81,8.53,8.53,0,0,0,3.31.62,11.85,11.85,0,0,0,7.44-2.75v2.86a13.52,13.52,0,0,1-8.1,2.39,10.77,10.77,0,0,1-4.25-.81,8.84,8.84,0,0,1-3.25-2.38,10.63,10.63,0,0,1-2.07-3.84,16.79,16.79,0,0,1-.73-5.18,14.54,14.54,0,0,1,.79-4.84,11.88,11.88,0,0,1,2.21-3.86,10.29,10.29,0,0,1,3.34-2.55,9.82,9.82,0,0,1,4.24-.92,9.7,9.7,0,0,1,4,.78,7.84,7.84,0,0,1,2.9,2.25,10.14,10.14,0,0,1,1.79,3.55,16.53,16.53,0,0,1,.61,4.68v1.46Zm13.83-2.55a8.86,8.86,0,0,0-1.72-5.64,5.66,5.66,0,0,0-4.62-2,7,7,0,0,0-2.74.52,6.49,6.49,0,0,0-2.22,1.51,7.94,7.94,0,0,0-1.58,2.41,12.09,12.09,0,0,0-.88,3.2Z"/><path id="_Compound_Path_11" data-name="&lt;Compound Path&gt;" class="cls-5" d="M809.77,616.23a10.34,10.34,0,0,0,1.43.93,11.81,11.81,0,0,0,1.59.7,10.08,10.08,0,0,0,1.65.44,9,9,0,0,0,1.59.15c3.45,0,5.18-1.29,5.18-3.89a3.09,3.09,0,0,0-.37-1.53,3.86,3.86,0,0,0-1.05-1.18,8.59,8.59,0,0,0-1.63-1c-.64-.3-1.36-.61-2.16-1a22,22,0,0,1-2.78-1.34,8.49,8.49,0,0,1-1.9-1.49,5.34,5.34,0,0,1-1.12-1.78,6.2,6.2,0,0,1-.37-2.19,5.58,5.58,0,0,1,.67-2.76,6.65,6.65,0,0,1,1.81-2,8.6,8.6,0,0,1,2.63-1.29,11.11,11.11,0,0,1,3.13-.44,11.57,11.57,0,0,1,5.28,1.14v3.07a10.27,10.27,0,0,0-5.64-1.68,6.91,6.91,0,0,0-2,.27,4.58,4.58,0,0,0-1.53.77,3.45,3.45,0,0,0-1,1.2,3.25,3.25,0,0,0-.35,1.53,3.88,3.88,0,0,0,.27,1.51,3.2,3.2,0,0,0,.86,1.17,7.4,7.4,0,0,0,1.49,1c.62.32,1.36.66,2.25,1a30.27,30.27,0,0,1,2.91,1.35,9.39,9.39,0,0,1,2,1.46,5.26,5.26,0,0,1,1.18,1.75,6,6,0,0,1,.39,2.24,5.85,5.85,0,0,1-2.45,4.87,8.07,8.07,0,0,1-2.69,1.27,12.44,12.44,0,0,1-3.37.43,11.17,11.17,0,0,1-5.93-1.47Z"/><path id="_Compound_Path_12" data-name="&lt;Compound Path&gt;" class="cls-5" d="M840,620.14a7.25,7.25,0,0,1-3.28.75c-3.76,0-5.64-2.18-5.64-6.51V599.66H827v-2.54h4.09v-5.87l2.91-1v6.83h6v2.54h-6v14.26a5.83,5.83,0,0,0,.78,3.42,3.05,3.05,0,0,0,2.61,1,4.72,4.72,0,0,0,2.62-.81Z"/><path id="_Compound_Path_13" data-name="&lt;Compound Path&gt;" class="cls-5" d="M875.82,620.41l-4.92-9.35a20.17,20.17,0,0,0-1.4-2.32,7,7,0,0,0-1.42-1.49,4.47,4.47,0,0,0-1.55-.79,6.76,6.76,0,0,0-1.86-.24h-3.6v14.19h-3V587.79h9.39a11.41,11.41,0,0,1,3.55.55,9.52,9.52,0,0,1,3.06,1.61,7.91,7.91,0,0,1,2.15,2.69,8.22,8.22,0,0,1,.82,3.75,9.26,9.26,0,0,1-.53,3.18,8.07,8.07,0,0,1-1.49,2.58,9,9,0,0,1-2.34,1.92,11.52,11.52,0,0,1-3.11,1.17v.09a4.75,4.75,0,0,1,1.21.71,6.89,6.89,0,0,1,1.06,1,12.85,12.85,0,0,1,1,1.41c.33.53.68,1.14,1,1.82l5.48,10.1Zm-14.75-29.84v12.89h5.42a9.09,9.09,0,0,0,3-.47,6.68,6.68,0,0,0,2.33-1.37,6.18,6.18,0,0,0,1.5-2.14,7.2,7.2,0,0,0,.53-2.82A5.65,5.65,0,0,0,872,592.2a7.7,7.7,0,0,0-5.29-1.63Z"/><path id="_Compound_Path_14" data-name="&lt;Compound Path&gt;" class="cls-5" d="M897.86,620.41v-4.14h-.09a8.51,8.51,0,0,1-3.11,3.46,8.25,8.25,0,0,1-4.44,1.22,9.28,9.28,0,0,1-3-.47,6.5,6.5,0,0,1-2.29-1.35,5.88,5.88,0,0,1-1.46-2.11,7,7,0,0,1-.51-2.71,6.64,6.64,0,0,1,2-5,10.56,10.56,0,0,1,5.92-2.45l7.07-1c0-4.48-1.74-6.71-5.21-6.71a11.41,11.41,0,0,0-7.55,3v-3.18a9.62,9.62,0,0,1,1.65-.94,16.54,16.54,0,0,1,1.94-.73,13.7,13.7,0,0,1,2.11-.47,12.77,12.77,0,0,1,2.1-.18,7.53,7.53,0,0,1,5.88,2.19q2,2.18,2,6.5v15.15Zm-6-11.3a18.08,18.08,0,0,0-2.68.56,5.66,5.66,0,0,0-1.84.92,3.48,3.48,0,0,0-1.07,1.44,5.63,5.63,0,0,0-.34,2.1,4.48,4.48,0,0,0,.33,1.73,3.78,3.78,0,0,0,1,1.38,4.3,4.3,0,0,0,1.52.89,5.9,5.9,0,0,0,2,.32,6.69,6.69,0,0,0,5.07-2.22,7.57,7.57,0,0,0,1.49-2.51,9.23,9.23,0,0,0,.53-3.16v-2.29Z"/><path id="_Compound_Path_15" data-name="&lt;Compound Path&gt;" class="cls-5" d="M917.79,620.14a7.28,7.28,0,0,1-3.28.75c-3.76,0-5.64-2.18-5.64-6.51V599.66h-4.09v-2.54h4.09v-5.87l2.91-1v6.83h6v2.54h-6v14.26a5.83,5.83,0,0,0,.78,3.42,3.05,3.05,0,0,0,2.61,1,4.77,4.77,0,0,0,2.62-.81Z"/><path id="_Compound_Path_16" data-name="&lt;Compound Path&gt;" class="cls-5" d="M924,609.29a13,13,0,0,0,.58,3.84A8,8,0,0,0,926.1,616a6.81,6.81,0,0,0,2.49,1.81,8.53,8.53,0,0,0,3.31.62,11.85,11.85,0,0,0,7.44-2.75v2.86a13.52,13.52,0,0,1-8.1,2.39,10.77,10.77,0,0,1-4.25-.81,8.93,8.93,0,0,1-3.25-2.38,10.78,10.78,0,0,1-2.07-3.84,16.79,16.79,0,0,1-.73-5.18,14.54,14.54,0,0,1,.79-4.84A11.9,11.9,0,0,1,924,600a10.36,10.36,0,0,1,3.33-2.55,9.82,9.82,0,0,1,4.24-.92,9.7,9.7,0,0,1,4,.78,7.76,7.76,0,0,1,2.9,2.25,10.32,10.32,0,0,1,1.8,3.55,16.91,16.91,0,0,1,.6,4.68v1.46Zm13.83-2.55a8.86,8.86,0,0,0-1.72-5.64,5.66,5.66,0,0,0-4.62-2,7,7,0,0,0-2.74.52,6.49,6.49,0,0,0-2.22,1.51,7.94,7.94,0,0,0-1.58,2.41,12.09,12.09,0,0,0-.88,3.2Z"/><path id="_Compound_Path_17" data-name="&lt;Compound Path&gt;" class="cls-5" d="M959.75,620.41V587.79h8.57q8.38,0,12.65,4t4.28,11.87a18.91,18.91,0,0,1-1.2,6.87,14.54,14.54,0,0,1-3.45,5.28,15.32,15.32,0,0,1-5.45,3.4,20.76,20.76,0,0,1-7.23,1.19Zm3-29.84v27.09h5a18.33,18.33,0,0,0,6-.92,12,12,0,0,0,4.5-2.66,11.76,11.76,0,0,0,2.81-4.36,17.15,17.15,0,0,0,1-6q0-13.18-13.94-13.18Z"/><path id="_Compound_Path_18" data-name="&lt;Compound Path&gt;" class="cls-5" d="M992.68,609.29a13.36,13.36,0,0,0,.57,3.84,8.2,8.2,0,0,0,1.57,2.89,6.73,6.73,0,0,0,2.49,1.81,8.46,8.46,0,0,0,3.31.62,11.87,11.87,0,0,0,7.44-2.75v2.86A13.52,13.52,0,0,1,1000,621a10.77,10.77,0,0,1-4.25-.81,8.84,8.84,0,0,1-3.25-2.38,10.63,10.63,0,0,1-2.07-3.84,16.78,16.78,0,0,1-.74-5.18,14.29,14.29,0,0,1,.8-4.84,11.88,11.88,0,0,1,2.21-3.86,10.29,10.29,0,0,1,3.34-2.55,9.82,9.82,0,0,1,4.24-.92,9.7,9.7,0,0,1,4,.78,7.84,7.84,0,0,1,2.9,2.25,10.14,10.14,0,0,1,1.79,3.55,16.53,16.53,0,0,1,.61,4.68v1.46Zm13.83-2.55a8.8,8.8,0,0,0-1.73-5.64,5.65,5.65,0,0,0-4.62-2,7,7,0,0,0-2.73.52,6.39,6.39,0,0,0-2.22,1.51,7.94,7.94,0,0,0-1.58,2.41,11.72,11.72,0,0,0-.88,3.2Z"/><path id="_Compound_Path_19" data-name="&lt;Compound Path&gt;" class="cls-5" d="M1030.71,619.36a12.24,12.24,0,0,1-6.28,1.62,10.89,10.89,0,0,1-4.5-.87,9.91,9.91,0,0,1-3.41-2.46,11,11,0,0,1-2.16-3.73,14.13,14.13,0,0,1-.75-4.68,14.76,14.76,0,0,1,.8-4.92,11.75,11.75,0,0,1,2.32-4,10.81,10.81,0,0,1,3.73-2.72,13.1,13.1,0,0,1,10.32.12v3.09a9.8,9.8,0,0,0-5.5-1.68,8.33,8.33,0,0,0-3.68.78,7.76,7.76,0,0,0-2.72,2.14,9.59,9.59,0,0,0-1.69,3.16,13.09,13.09,0,0,0-.09,7.4,8.66,8.66,0,0,0,1.51,3,7.22,7.22,0,0,0,2.55,2.08,8.16,8.16,0,0,0,3.64.77,9.61,9.61,0,0,0,5.91-2Z"/><path id="_Compound_Path_20" data-name="&lt;Compound Path&gt;" class="cls-5" d="M1037.69,609.29a13,13,0,0,0,.58,3.84,8,8,0,0,0,1.56,2.89,6.81,6.81,0,0,0,2.49,1.81,8.53,8.53,0,0,0,3.31.62,11.85,11.85,0,0,0,7.44-2.75v2.86A13.52,13.52,0,0,1,1045,621a10.77,10.77,0,0,1-4.25-.81,8.84,8.84,0,0,1-3.25-2.38,10.63,10.63,0,0,1-2.07-3.84,16.79,16.79,0,0,1-.73-5.18,14.54,14.54,0,0,1,.79-4.84,11.9,11.9,0,0,1,2.22-3.86,10.36,10.36,0,0,1,3.33-2.55,9.82,9.82,0,0,1,4.24-.92,9.7,9.7,0,0,1,4,.78,7.76,7.76,0,0,1,2.9,2.25,10.14,10.14,0,0,1,1.79,3.55,16.53,16.53,0,0,1,.61,4.68v1.46Zm13.83-2.55a8.86,8.86,0,0,0-1.72-5.64,5.66,5.66,0,0,0-4.62-2,7,7,0,0,0-2.74.52,6.49,6.49,0,0,0-2.22,1.51,7.94,7.94,0,0,0-1.58,2.41,12.09,12.09,0,0,0-.88,3.2Z"/><path id="_Compound_Path_21" data-name="&lt;Compound Path&gt;" class="cls-5" d="M1076,620.41V607c0-5.26-1.92-7.89-5.73-7.89a6.57,6.57,0,0,0-2.82.6,6.75,6.75,0,0,0-2.25,1.67,7.87,7.87,0,0,0-1.48,2.54,9.06,9.06,0,0,0-.54,3.17v13.33h-2.9V597.12h2.9v4h.1a8.43,8.43,0,0,1,7.8-4.6,7,7,0,0,1,5.82,2.48q2,2.48,2,7.17v14.19Z"/><path id="_Compound_Path_22" data-name="&lt;Compound Path&gt;" class="cls-5" d="M1095.87,620.14a7.21,7.21,0,0,1-3.27.75c-3.76,0-5.64-2.18-5.64-6.51V599.66h-4.09v-2.54H1087v-5.87l2.91-1v6.83h6v2.54h-6v14.26a5.83,5.83,0,0,0,.78,3.42,3,3,0,0,0,2.61,1,4.71,4.71,0,0,0,2.61-.81Z"/><path id="_Compound_Path_23" data-name="&lt;Compound Path&gt;" class="cls-5" d="M1112.23,600.09a5,5,0,0,0-4.68-.3A5.22,5.22,0,0,0,1106,601a7.24,7.24,0,0,0-1.14,1.75,13.17,13.17,0,0,0-.74,2,13.48,13.48,0,0,0-.41,2.16,19.32,19.32,0,0,0-.13,2.07v11.4h-2.89V597.12h2.89v5h.09a10.39,10.39,0,0,1,1-2.28,7,7,0,0,1,1.44-1.71,5.83,5.83,0,0,1,3.83-1.43,9.56,9.56,0,0,1,1.26.09,4.79,4.79,0,0,1,1,.28Z"/><path id="_Compound_Path_24" data-name="&lt;Compound Path&gt;" class="cls-5" d="M1129.87,620.41v-4.14h-.08a8.58,8.58,0,0,1-3.11,3.46,8.27,8.27,0,0,1-4.44,1.22,9.39,9.39,0,0,1-3-.47,6.68,6.68,0,0,1-2.29-1.35,6,6,0,0,1-1.46-2.11,7,7,0,0,1-.51-2.71,6.68,6.68,0,0,1,2-5,10.56,10.56,0,0,1,5.92-2.45l7.07-1c0-4.48-1.73-6.71-5.21-6.71a11.39,11.39,0,0,0-7.54,3v-3.18a9.51,9.51,0,0,1,1.64-.94,16.7,16.7,0,0,1,2-.73,13.84,13.84,0,0,1,2.1-.47,12.89,12.89,0,0,1,2.11-.18,7.56,7.56,0,0,1,5.88,2.19q2,2.18,2,6.5v15.15Zm-6-11.3a17.81,17.81,0,0,0-2.68.56,5.66,5.66,0,0,0-1.84.92,3.5,3.5,0,0,0-1.08,1.44,5.84,5.84,0,0,0-.34,2.1,4.67,4.67,0,0,0,.33,1.73,4,4,0,0,0,1,1.38,4.3,4.3,0,0,0,1.52.89,5.9,5.9,0,0,0,2,.32,6.66,6.66,0,0,0,2.84-.59,6.74,6.74,0,0,0,2.24-1.63,7.57,7.57,0,0,0,1.49-2.51,9.23,9.23,0,0,0,.52-3.16v-2.29Z"/><path id="_Compound_Path_25" data-name="&lt;Compound Path&gt;" class="cls-5" d="M1139.79,620.41V585.93h2.91v34.48Z"/><path id="_Compound_Path_26" data-name="&lt;Compound Path&gt;" class="cls-5" d="M1151.65,591.23a2,2,0,0,1-1.45-.6,1.94,1.94,0,0,1-.62-1.49,1.9,1.9,0,0,1,.62-1.47,2,2,0,0,1,1.45-.58,2.29,2.29,0,0,1,.82.15,2,2,0,0,1,.67.42,2.14,2.14,0,0,1,.46.64,2.07,2.07,0,0,1,.17.84,2.25,2.25,0,0,1-.16.81,2,2,0,0,1-.46.67,2.32,2.32,0,0,1-.67.45A2,2,0,0,1,1151.65,591.23Zm-1.44,29.18V597.12h2.91v23.29Z"/><path id="_Compound_Path_27" data-name="&lt;Compound Path&gt;" class="cls-5" d="M1162.34,617.86h14.35v2.55H1157.9v-1l14.62-19.77H1159.1v-2.54H1177v.82Z"/><path id="_Compound_Path_28" data-name="&lt;Compound Path&gt;" class="cls-5" d="M1183.36,609.29a12.7,12.7,0,0,0,.57,3.84,8,8,0,0,0,1.57,2.89,6.78,6.78,0,0,0,2.48,1.81,8.54,8.54,0,0,0,3.32.62,11.89,11.89,0,0,0,7.44-2.75v2.86a13.55,13.55,0,0,1-8.11,2.39,10.8,10.8,0,0,1-4.25-.81,8.93,8.93,0,0,1-3.25-2.38,10.94,10.94,0,0,1-2.07-3.84,16.79,16.79,0,0,1-.73-5.18,14.29,14.29,0,0,1,.8-4.84,11.71,11.71,0,0,1,2.21-3.86,10.29,10.29,0,0,1,3.34-2.55,10.35,10.35,0,0,1,8.21-.14,7.93,7.93,0,0,1,2.9,2.25,10.14,10.14,0,0,1,1.79,3.55,16.9,16.9,0,0,1,.61,4.68v1.46Zm13.83-2.55a8.92,8.92,0,0,0-1.73-5.64,5.66,5.66,0,0,0-4.62-2,7,7,0,0,0-2.74.52,6.58,6.58,0,0,0-2.22,1.51,8.13,8.13,0,0,0-1.58,2.41,11.72,11.72,0,0,0-.87,3.2Z"/><path id="_Compound_Path_29" data-name="&lt;Compound Path&gt;" class="cls-5" d="M1222.22,620.41v-4.09h-.09a8.18,8.18,0,0,1-3.31,3.41,10.32,10.32,0,0,1-8.85.42,8.49,8.49,0,0,1-3-2.33,10.85,10.85,0,0,1-2-3.69,15.73,15.73,0,0,1-.7-4.89,16.72,16.72,0,0,1,.76-5.15,12.17,12.17,0,0,1,2.17-4,9.79,9.79,0,0,1,3.36-2.59,10.25,10.25,0,0,1,4.38-.92c3.35,0,5.76,1.34,7.21,4h.09V585.93h2.92v34.48Zm0-14.06a7.62,7.62,0,0,0-.52-2.84,7,7,0,0,0-1.46-2.3,6.75,6.75,0,0,0-2.24-1.55,7.73,7.73,0,0,0-6.06.12,7,7,0,0,0-2.49,2,9.5,9.5,0,0,0-1.62,3.12,14.2,14.2,0,0,0-.57,4.19,13.81,13.81,0,0,0,.52,4,8.53,8.53,0,0,0,1.49,3,6.5,6.5,0,0,0,2.3,1.85,7,7,0,0,0,3,.63,7.81,7.81,0,0,0,3.2-.63,7,7,0,0,0,2.42-1.76,8,8,0,0,0,1.52-2.61,9.4,9.4,0,0,0,.53-3.21Z"/><path id="_Compound_Path_30" data-name="&lt;Compound Path&gt;" class="cls-5" d="M1245.89,620.41V587.79h15.9v2.78H1248.9v12h11.93v2.73H1248.9v12.4h13.61v2.75Z"/><path id="_Compound_Path_31" data-name="&lt;Compound Path&gt;" class="cls-5" d="M1277,609l7.65,11.46h-3.5l-4.74-7.71c-.18-.29-.37-.58-.55-.89s-.39-.62-.59-1h-.09a5.36,5.36,0,0,1-.34.6c-.16.25-.36.56-.59.94l-5.09,8h-3.44l7.87-11.4L1266,597.12h3.4l4.84,8.17c.24.4.46.77.63,1.1l.46.8h.09a10,10,0,0,0,.55-.88l.52-.89,5.14-8.3h3.27Z"/><path id="_Compound_Path_32" data-name="&lt;Compound Path&gt;" class="cls-5" d="M1304.83,619.36a12.24,12.24,0,0,1-6.28,1.62,10.85,10.85,0,0,1-4.5-.87,9.91,9.91,0,0,1-3.41-2.46,11,11,0,0,1-2.16-3.73,14.13,14.13,0,0,1-.75-4.68,14.76,14.76,0,0,1,.8-4.92,11.75,11.75,0,0,1,2.32-4,10.81,10.81,0,0,1,3.73-2.72,13.1,13.1,0,0,1,10.32.12v3.09a9.83,9.83,0,0,0-5.51-1.68,8.31,8.31,0,0,0-3.67.78A7.88,7.88,0,0,0,1293,602a9.76,9.76,0,0,0-1.68,3.16,13.09,13.09,0,0,0-.09,7.4,8.66,8.66,0,0,0,1.51,3,7.22,7.22,0,0,0,2.55,2.08,8.13,8.13,0,0,0,3.64.77,9.65,9.65,0,0,0,5.91-2Z"/><path id="_Compound_Path_33" data-name="&lt;Compound Path&gt;" class="cls-5" d="M1326.14,620.41V606.72c0-2.62-.47-4.53-1.41-5.77a5.17,5.17,0,0,0-4.39-1.85,6.64,6.64,0,0,0-2.68.56,6.52,6.52,0,0,0-2.23,1.64,8,8,0,0,0-1.52,2.61,9.84,9.84,0,0,0-.58,3.46v13h-2.91V585.93h2.91v15.21h.1a8.64,8.64,0,0,1,7.83-4.57,7.12,7.12,0,0,1,5.84,2.39q2,2.38,2,7v14.4Z"/><path id="_Compound_Path_34" data-name="&lt;Compound Path&gt;" class="cls-5" d="M1349.48,620.41v-4.14h-.09a8.55,8.55,0,0,1-3.1,3.46,8.3,8.3,0,0,1-4.44,1.22,9.39,9.39,0,0,1-3-.47,6.68,6.68,0,0,1-2.29-1.35,6,6,0,0,1-1.46-2.11,7,7,0,0,1-.51-2.71,6.68,6.68,0,0,1,2-5,10.56,10.56,0,0,1,5.92-2.45l7.07-1c0-4.48-1.73-6.71-5.21-6.71a11.37,11.37,0,0,0-7.54,3v-3.18a9.51,9.51,0,0,1,1.64-.94,16.7,16.7,0,0,1,2-.73,13.57,13.57,0,0,1,2.1-.47,12.86,12.86,0,0,1,2.1-.18,7.56,7.56,0,0,1,5.89,2.19q2,2.18,2,6.5v15.15Zm-6-11.3a17.81,17.81,0,0,0-2.68.56,5.66,5.66,0,0,0-1.84.92,3.41,3.41,0,0,0-1.08,1.44,5.84,5.84,0,0,0-.34,2.1,4.67,4.67,0,0,0,.33,1.73,4,4,0,0,0,1,1.38,4.3,4.3,0,0,0,1.52.89,5.9,5.9,0,0,0,2,.32,6.66,6.66,0,0,0,2.84-.59,6.74,6.74,0,0,0,2.24-1.63,7.74,7.74,0,0,0,1.49-2.51,9.48,9.48,0,0,0,.52-3.16v-2.29Z"/><path id="_Compound_Path_35" data-name="&lt;Compound Path&gt;" class="cls-5" d="M1375.12,620.41V607q0-7.89-5.73-7.89a6.6,6.6,0,0,0-2.82.6,6.71,6.71,0,0,0-2.24,1.67,7.87,7.87,0,0,0-1.48,2.54,9.06,9.06,0,0,0-.54,3.17v13.33h-2.91V597.12h2.91v4h.1a8.42,8.42,0,0,1,7.8-4.6,7.05,7.05,0,0,1,5.82,2.48q2,2.48,2,7.17v14.19Z"/><path id="_Compound_Path_36" data-name="&lt;Compound Path&gt;" class="cls-5" d="M1404.28,618.62c0,4.31-1,7.52-3,9.6s-5,3.13-9.08,3.13a16.09,16.09,0,0,1-7.24-1.7v-3a14.86,14.86,0,0,0,7.24,2.12q9.12,0,9.11-9.64v-2.8h-.09a8.84,8.84,0,0,1-8.18,4.59,9.61,9.61,0,0,1-3.95-.79,8.53,8.53,0,0,1-3.06-2.3,10.92,10.92,0,0,1-2-3.65,15.82,15.82,0,0,1-.71-4.86,17.18,17.18,0,0,1,.76-5.22,12,12,0,0,1,2.14-4,9.57,9.57,0,0,1,3.35-2.6,10.38,10.38,0,0,1,4.43-.92,7.68,7.68,0,0,1,7.2,4h.09v-3.46h2.92Zm-2.92-12.36a7.23,7.23,0,0,0-.52-2.75,7,7,0,0,0-1.46-2.28,7.35,7.35,0,0,0-2.21-1.56,6.93,6.93,0,0,0-2.84-.57,7.48,7.48,0,0,0-3.28.7,7,7,0,0,0-2.5,2A9.16,9.16,0,0,0,1387,605a14.24,14.24,0,0,0-.56,4.18,13.25,13.25,0,0,0,.52,3.86,8.74,8.74,0,0,0,1.48,2.94,6.41,6.41,0,0,0,2.31,1.86,6.79,6.79,0,0,0,3,.66,7.77,7.77,0,0,0,3.13-.62,7.39,7.39,0,0,0,2.42-1.73,7.76,7.76,0,0,0,1.54-2.6,9.32,9.32,0,0,0,.54-3.21Z"/><path id="_Compound_Path_37" data-name="&lt;Compound Path&gt;" class="cls-5" d="M1413.17,609.29a13.36,13.36,0,0,0,.57,3.84,8.2,8.2,0,0,0,1.57,2.89,6.73,6.73,0,0,0,2.49,1.81,8.46,8.46,0,0,0,3.31.62,11.89,11.89,0,0,0,7.44-2.75v2.86a13.52,13.52,0,0,1-8.1,2.39,10.77,10.77,0,0,1-4.25-.81,8.76,8.76,0,0,1-3.25-2.38,10.63,10.63,0,0,1-2.07-3.84,16.78,16.78,0,0,1-.74-5.18,14.29,14.29,0,0,1,.8-4.84,11.88,11.88,0,0,1,2.21-3.86,10.29,10.29,0,0,1,3.34-2.55,10.36,10.36,0,0,1,8.21-.14,7.93,7.93,0,0,1,2.9,2.25,10.14,10.14,0,0,1,1.79,3.55,16.9,16.9,0,0,1,.61,4.68v1.46Zm13.83-2.55a8.86,8.86,0,0,0-1.73-5.64,5.66,5.66,0,0,0-4.62-2,7.11,7.11,0,0,0-2.74.52,6.58,6.58,0,0,0-2.22,1.51,8.1,8.1,0,0,0-1.57,2.41,11.72,11.72,0,0,0-.88,3.2Z"/></g></g></g></svg>