<svg xmlns="http://www.w3.org/2000/svg" viewBox="0 0 1500 1000"><defs><style>.cls-1{fill:#fff;}.cls-2{fill:none;}.cls-3{fill:#1f262c;}.cls-4{fill:#c61d20;}</style></defs><title>wisesight</title><g id="bg"><rect class="cls-1" width="1500" height="1000"/></g><g id="Layer_5" data-name="Layer 5"><rect class="cls-2" x="3" y="270.38" width="1494" height="459.24"/><path class="cls-3" d="M544.41,564.25c-5.94-18.21-13.56-36-20.06-54.06-5-13.94-9.66-27.87-14.31-42l-36,96.05h-7.43c-1.49-4.83-3.16-9.66-5-14.3-6.13-16-12.26-32-18.21-48.12-7.8-21.37-15-43.11-22.85-64.47h24.34c11.33,31.21,21.92,62.61,32.7,94l34.56-96.8h9.29l34,97.35,35.3-94.56h11.14L553.7,564.25Z"/><path class="cls-3" d="M628.75,562.58c.19-28.43.56-56.67.56-85.09,0-13.38,0-26.76-.37-40.13h23c0,41.8.18,83.42.18,125.22Z"/><path class="cls-3" d="M688,530.81c6.13,12.45,15.79,21.92,30.28,21.92,11.52,0,21-6.69,21-19,0-30.84-54.63-23.22-54.63-65.58,0-19.7,17.65-32.7,36.23-32.7,10.78,0,23.23,3.53,31.59,10.77l-7.81,16.91c-4.83-9.1-13.37-16.16-24-16.16-9.29,0-15.42,7.06-15.42,16.16,0,30.84,54.43,22.11,54.43,64.28,0,22.49-19.51,37.35-41.06,37.35-15,0-26.38-4.83-37.71-14.49Z"/><path class="cls-3" d="M786.67,562.58V437.36h66.14l5,12.63c-10-1.49-20.25-1.49-30.47-1.49H809.52v45.34h8.92a236.43,236.43,0,0,0,30.28-1.68l-.37,13.57q-14.21-1.12-28.43-1.12c-3.53,0-7,.19-10.58.37v46.45h22.29c11.52,0,23.22,0,34.56-2l-4.65,13.19Z"/><path class="cls-3" d="M889.78,530.81c6.13,12.45,15.79,21.92,30.28,21.92,11.52,0,21-6.69,21-19,0-30.84-54.63-23.22-54.63-65.58,0-19.7,17.65-32.7,36.23-32.7,10.78,0,23.23,3.53,31.59,10.77l-7.81,16.91c-4.83-9.1-13.37-16.16-24-16.16-9.29,0-15.42,7.06-15.42,16.16,0,30.84,54.43,22.11,54.43,64.28,0,22.49-19.51,37.35-41.06,37.35-15,0-26.38-4.83-37.71-14.49Z"/><path class="cls-3" d="M990.28,562.58c.19-28.43.56-56.67.56-85.09,0-13.38,0-26.76-.37-40.13h23c0,41.8.18,83.42.18,125.22Z"/><path class="cls-3" d="M1135.39,504.61h21v49.8c-12.63,6.31-33.07,10.4-47,10.4-36.61,0-66.89-26.2-66.89-63.91,0-37.53,28.61-65.77,66.14-65.77,18.77,0,32.89,5.2,47.94,16.16l-7.06,18.58c-7.25-15.42-21.37-22.85-38.28-22.85-30.28,0-44,26.75-44,53.88,0,29.17,15,52.76,46.26,52.76,6.88,0,16.17-1.86,21.93-5.94Z"/><path class="cls-3" d="M1263.76,562.58V505.17h-53.69c-.19,19.14,0,38.27,0,57.41h-22.85c0-29.73.55-59.64.55-89.37,0-11.89,0-24-.37-35.85h22.67v56.48h53.69V465.6c0-9.48,0-18.77-.37-28.24h23.22V562.58Z"/><path class="cls-3" d="M1346.62,562.58V448.5h-42.36l2.78-11.14h106.28l.18,11.14h-43.66c0,38.09-.18,76-.18,114.08Z"/><path class="cls-4" d="M232.62,353.29a145.42,145.42,0,0,0-80.43,24.12l9.42,25.72v0l4.74,13v0L215,549.68l12.33-34.27L209.59,466.7l23-63.34,58.64,161.12L268.16,628l-35.49-97.71-13,36h0L201.86,615l-9,25.08a146.14,146.14,0,1,0,39.79-286.76Zm71,177.2-23.1-63.76,23.07-63.39L326.77,467Z"/><path class="cls-4" d="M138.5,466.87l17.75-49-12.59-34.41A146.15,146.15,0,0,0,183.21,637l8.55-23.76Z"/><polygon class="cls-4" points="161.64 432.68 149.25 466.86 197.15 598.46 209.59 564.49 161.64 432.68"/><polygon class="cls-4" points="280.53 564.48 232.64 432.89 220.34 466.7 268.17 598.41 280.53 564.48"/></g></svg>