<svg xmlns="http://www.w3.org/2000/svg" viewBox="0 0 1500 1000"><defs><style>.cls-1{fill:#fff;}</style></defs><title>spon</title><g id="bg"><rect class="cls-1" width="1500" height="1000"/></g><g id="Layer_8" data-name="Layer 8"><polygon points="219.38 562.12 164.81 514.73 94.81 514.73 94.75 523.39 120.61 523.39 184.93 576.47 185.09 626.73 233.84 626.73 233.73 576.47 306.96 514.73 278.24 514.73 219.38 562.12"/><polygon points="371.59 514.65 371.59 523.27 395.64 523.39 440.97 576.47 355.3 576.47 315.1 626.73 342.86 626.73 367.9 595.09 456.29 594.93 485 626.73 528.08 626.73 435.56 514.65 371.59 514.65"/><polygon points="722.54 514.65 722.54 591.55 622.09 514.65 532.39 514.65 532.39 519.92 573.07 528.06 573.07 626.73 600.83 626.73 600.83 538.35 714.27 626.69 754.12 626.73 754.92 514.65 672.14 469.26 722.54 514.65"/><polygon points="1043.55 523.39 1078.73 523.39 1077.29 626.73 1121.8 626.73 1121.8 514.65 1043.55 514.65 1043.55 523.39"/><path d="M831.8,426.25a56.18,56.18,0,0,0-37.61-53l-.05.14a43,43,0,1,1-37.34.15s0-.11-.08-.17a56.18,56.18,0,1,0,75.08,52.9Z"/><polygon points="827.66 514.65 827.66 591.55 926.95 514.65 1015.62 514.65 1015.62 519.92 975.4 528.06 975.4 626.73 947.96 626.73 947.96 538.35 835.83 626.69 796.44 626.73 795.64 514.65 877.47 469.26 827.66 514.65"/><polygon points="1405.25 626.73 1320.61 563.51 1391.86 514.65 1357.23 514.69 1304.06 551.15 1255.2 514.65 1172.77 514.65 1172.77 523.42 1205.46 523.42 1272.01 573.13 1206.62 617.96 1172.77 617.96 1172.77 618 1172.77 626.73 1172.77 626.77 1228.4 626.73 1288.56 585.49 1343.83 626.77 1405.25 626.73"/></g></svg>